<?xml version="1.0" encoding="iso-8859-1"?>
<!-- Generator: Adobe Illustrator 16.0.0, SVG Export Plug-In . SVG Version: 6.00 Build 0)  -->
<!DOCTYPE svg PUBLIC "-//W3C//DTD SVG 1.1//EN" "http://www.w3.org/Graphics/SVG/1.1/DTD/svg11.dtd">
<svg version="1.1" id="Capa_1" xmlns="http://www.w3.org/2000/svg" xmlns:xlink="http://www.w3.org/1999/xlink" x="0px" y="0px"
	 width="792px" height="792px" viewBox="0 0 792 792" style="enable-background:new 0 0 792 792;" xml:space="preserve">
<g>
	<g>
		<polygon points="622.979,670.666 622.979,597.011 576.07,597.011 576.07,670.666 501.637,670.666 501.637,718.345 576.07,718.345 
			576.07,792 622.979,792 622.979,718.345 697.023,718.345 697.023,670.666 		"/>
		<path d="M138.007,745.479V46.521c0-2.712,1.158-3.879,3.879-3.879h158.939v230.279c0,26.366,20.163,47.687,46.521,47.687h230.271
			v234.928h43.031V320.6v-43.031h-0.77L343.467,0.777L342.689,0h-41.864H141.886c-13.183,0-24.431,4.648-33.346,13.572
			c-8.916,8.916-13.563,20.155-13.563,32.949v698.959c0,26.366,20.543,46.521,46.909,46.521h359.751v-42.642H141.886
			C139.165,749.358,138.007,748.2,138.007,745.479z M343.467,61.639l215.93,215.93H347.346c-2.713,0-3.879-1.555-3.879-4.648V61.639
			z"/>
	</g>
</g>
<g>
</g>
<g>
</g>
<g>
</g>
<g>
</g>
<g>
</g>
<g>
</g>
<g>
</g>
<g>
</g>
<g>
</g>
<g>
</g>
<g>
</g>
<g>
</g>
<g>
</g>
<g>
</g>
<g>
</g>
</svg>
