<?xml version="1.0" encoding="iso-8859-1"?>
<!-- Generator: Adobe Illustrator 16.0.0, SVG Export Plug-In . SVG Version: 6.00 Build 0)  -->
<!DOCTYPE svg PUBLIC "-//W3C//DTD SVG 1.1//EN" "http://www.w3.org/Graphics/SVG/1.1/DTD/svg11.dtd">
<svg version="1.1" id="Capa_1" xmlns="http://www.w3.org/2000/svg" xmlns:xlink="http://www.w3.org/1999/xlink" x="0px" y="0px"
	 width="612.678px" height="612.678px" viewBox="0 0 612.678 612.678" style="enable-background:new 0 0 612.678 612.678;"
	 xml:space="preserve">
<g>
	<g>
		<path d="M610.94,42.16c-1.762-23.495-17.303-38.754-40.774-40.774C561.496,0.641,550.121,0,535.259,0h-5.529
			c-75.327,0-146.577,10.52-213.205,31.795C268.43,47.151,227.051,67.431,191.43,91.921c-19.661,13.521-37.664,28.331-54.597,45.264
			c-15.201,15.208-29.959,33.248-44.578,53.565c-24.431,33.94-44.225,75.784-60.126,125.435
			C11.398,380.918,0.34,451.991,0.34,529.05c0,18.312,0.634,31.759,1.378,40.429c2.02,23.479,17.648,39.108,41.121,41.12
			c12.812,1.099,25.92,2.079,39.396,2.079c22.462,0,49.746-1.82,82.242-5.528c100.546-11.493,183.024-38.556,247.765-80.863
			c23.03-15.054,43.886-31.796,62.891-50.801l0.692-0.686c20.384-20.391,37.081-41.622,51.14-63.237
			c41.925-64.438,69.193-146.857,80.517-247.418c3.192-28.331,4.615-55.29,4.836-80.517C612.444,69.451,611.942,55.636,610.94,42.16
			z M569.472,159.647c-10.151,92.938-35.201,170.042-75.334,231.524c-13.778,21.106-29.023,39.742-45.957,56.669v0.692
			c-17.28,16.587-35.932,32.312-56.676,45.957c-61.166,40.266-138.586,64.092-231.171,74.295c-32.85,3.62-59.094,5.876-78.099,5.876
			c-10.711,0-22.462-0.687-35.938-2.418c-4.49,0-5.875-1.032-6.915-6.223c-0.339-7.601-0.686-20.037-0.686-36.971
			c0-71.184,9.952-138.246,29.716-200.769c14.095-44.6,32.437-82.964,54.943-115.416c10.321-14.891,23.406-31.522,40.428-48.721
			c16.506-16.676,33.557-30.012,49.415-41.128c31.485-22.057,69.886-40.177,114.73-54.597
			C390.554,48.286,457.853,38.01,529.73,38.01h5.529c13.476,0,23.848,0.347,31.103,1.386c4.489,0,6.288,2.079,6.568,6.561
			c0.752,12.12,1.378,24.542,1.378,37.325C574.308,107.122,572.451,132.334,569.472,159.647z"/>
		<path d="M412.935,202.154c-7.674-8.212-19.697-7.947-27.645,0l-30.409,30.409l-26.267-25.227c-6.907-7.947-18.739-7.674-26.952,0
			c-7.696,7.195-7.947,18.658,0,26.605l26.267,26.266l-21.084,20.73l-26.259-25.573c-7.549-7.342-19.005-7.947-26.952,0
			c-6.915,6.915-7.497,19.558,0,26.959l26.259,25.913l-21.423,20.737l-26.605-26.267c-7.497-7.394-19.012-7.947-26.959,0
			c-6.908,6.915-7.446,19.507,0,26.952l26.959,26.959l-31.102,30.41c-7.534,7.356-6.915,20.037,0,26.951
			c3.796,3.797,8.293,5.529,13.822,5.529c5.183,0,9.672-1.732,13.476-5.529l30.409-30.409l26.259,25.913
			c8.006,7.895,19.005,7.946,26.959,0c7.946-7.947,8.102-19.854,0-27.646l-26.267-25.22l21.423-21.43l26.952,26.959
			c3.804,3.797,7.954,5.529,13.137,5.529s9.672-1.732,13.476-5.529c7.947-7.954,7.999-19.75,0-27.645l-26.612-26.267l21.084-21.077
			l26.952,26.952c7.254,7.254,19.697,7.254,26.951,0c7.947-7.946,7.446-19.506,0-26.952l-26.951-26.952l31.102-31.102
			C419.843,222.191,420.124,209.843,412.935,202.154z"/>
	</g>
</g>
<g>
</g>
<g>
</g>
<g>
</g>
<g>
</g>
<g>
</g>
<g>
</g>
<g>
</g>
<g>
</g>
<g>
</g>
<g>
</g>
<g>
</g>
<g>
</g>
<g>
</g>
<g>
</g>
<g>
</g>
</svg>
