<?xml version="1.0" encoding="iso-8859-1"?>
<!-- Generator: Adobe Illustrator 16.0.0, SVG Export Plug-In . SVG Version: 6.00 Build 0)  -->
<!DOCTYPE svg PUBLIC "-//W3C//DTD SVG 1.1//EN" "http://www.w3.org/Graphics/SVG/1.1/DTD/svg11.dtd">
<svg version="1.1" id="Capa_1" xmlns="http://www.w3.org/2000/svg" xmlns:xlink="http://www.w3.org/1999/xlink" x="0px" y="0px"
	 width="611.987px" height="611.988px" viewBox="0 0 611.987 611.988" style="enable-background:new 0 0 611.987 611.988;"
	 xml:space="preserve">
<g>
	<path d="M528.545,334.55l-80.762,80.724h64.911c0,27.822-8.404,53.858-25.424,78.107c-16.782,23.93-39.781,43.393-68.797,58.325
		c-29.016,14.932-61.317,23.61-96.319,26.035v-422.06h34.995c9.272,0,16.451-7.466,16.451-16.783
		c0-9.253-7.179-16.464-16.451-16.464h-35.595c26.623-7.466,45.467-31.396,45.467-59.219c0-17.038-6.279-31.715-18.544-43.967
		C336.212,6.997,321.555,0.744,304.503,0.744c-17.051,0-31.785,6.189-43.974,18.506c-12.042,12.188-17.944,26.929-17.944,43.967
		c0,14.103,4.116,26.419,12.565,37.395c8.302,10.849,19.144,17.996,32.009,21.824h-32.302c-9.272,0-16.451,7.211-16.451,16.464
		c0,9.317,7.179,16.783,16.451,16.783h34.402v422.06c-35.295-2.105-67.572-10.529-97.213-25.461
		c-29.284-14.678-52.748-34.013-69.997-58.325c-17.146-24.122-25.723-50.54-26.023-78.682h2.693h65.511L80.762,334.55L0,415.274
		h63.111c0.3,35.607,10.969,68.28,32.602,98.464c21.735,30.247,51.178,53.73,87.941,71.151
		c37.126,17.612,77.476,26.354,120.843,26.354s83.697-8.806,120.843-26.354c37.031-17.485,66.309-41.032,87.941-71.151
		c21.734-30.312,32.602-62.856,32.602-98.464h0.601h65.504L528.545,334.55z M283.866,83.573c-11.212-10.912-11.148-29.354,0-40.968
		c11.582-12.061,29.539-11.869,41.281,0c11.588,11.742,11.665,29.928,0,40.968C313.476,94.676,295.385,94.804,283.866,83.573z"/>
</g>
<g>
</g>
<g>
</g>
<g>
</g>
<g>
</g>
<g>
</g>
<g>
</g>
<g>
</g>
<g>
</g>
<g>
</g>
<g>
</g>
<g>
</g>
<g>
</g>
<g>
</g>
<g>
</g>
<g>
</g>
</svg>
