<?xml version="1.0" encoding="iso-8859-1"?>
<!-- Generator: Adobe Illustrator 16.0.0, SVG Export Plug-In . SVG Version: 6.00 Build 0)  -->
<!DOCTYPE svg PUBLIC "-//W3C//DTD SVG 1.1//EN" "http://www.w3.org/Graphics/SVG/1.1/DTD/svg11.dtd">
<svg version="1.1" id="Capa_1" xmlns="http://www.w3.org/2000/svg" xmlns:xlink="http://www.w3.org/1999/xlink" x="0px" y="0px"
	 width="612.029px" height="612.029px" viewBox="0 0 612.029 612.029" style="enable-background:new 0 0 612.029 612.029;"
	 xml:space="preserve">
<g>
	<g>
		<path d="M592.901,286.775h-82.719c-10.772,0-19.113,8.304-19.113,19.054c0,10.824,8.341,19.499,19.113,19.499h82.719
			c10.772,0,19.113-8.675,19.113-19.499C612.015,295.079,603.674,286.775,592.901,286.775z"/>
		<path d="M463.964,175.194l58.385-58.423c7.993-7.933,7.993-20.092,0-27.061c-6.946-8.007-19.113-8.007-27.105,0l-58.386,58.348
			c-7.992,8.007-7.992,20.167,0,27.136C442.767,182.459,458.055,182.459,463.964,175.194z"/>
		<path d="M463.964,436.168c-7.444-7.488-20.159-6.969-27.106,0c-7.992,8.008-7.992,19.796,0,27.803l58.386,58.423
			c4.182,4.152,9.038,5.561,13.553,5.561c5.213,0,9.728-1.779,14.25-5.561c6.947-8.007,6.747-19.573-0.696-27.136L463.964,436.168z"
			/>
		<path d="M305.837,120.997c10.772,0,19.462-8.378,19.462-19.128V19.128C325.299,8.377,316.609,0,305.837,0
			c-10.773,0-19.114,8.377-19.114,19.128v82.741C286.723,112.619,295.064,120.997,305.837,120.997z"/>
		<path d="M305.837,490.365c-10.773,0-19.114,8.378-19.114,19.128v83.408c0,10.824,8.341,19.128,19.114,19.128
			c10.772,0,19.462-8.304,19.462-19.128v-83.408C325.299,498.743,316.609,490.365,305.837,490.365z"/>
		<path d="M410.79,200.92c-29.019-29.063-63.938-43.817-104.953-43.817c-41.007,0-76.105,14.605-105.302,43.817
			c-28.841,28.841-43.439,63.909-43.439,104.909c0,41,14.42,76.291,43.439,105.354c29.019,28.989,64.294,43.446,105.302,43.446
			c41.015,0,76.112-14.605,104.953-43.446c29.196-29.211,43.795-64.354,43.795-105.354
			C454.585,264.83,439.809,229.909,410.79,200.92z M286.723,414.297c-26.06-4.894-47.694-17.349-64.984-37.516
			c-17.468-20.462-26.068-44.188-26.068-70.952s8.689-50.341,26.068-70.878c17.371-20.463,38.924-33.363,64.984-37.886V414.297z
			 M390.29,376.781c-17.134,20.389-38.924,32.993-64.991,37.516V197.065c26.067,4.522,47.857,17.497,64.991,37.886
			c17.274,20.611,26.061,44.113,26.061,70.878S407.564,356.171,390.29,376.781z"/>
		<path d="M148.059,436.168l-58.386,59.09c-7.607,7.711-7.295,19.796,0,27.136c7.303,7.266,19.81,7.266,27.113,0l59.075-59.09
			c6.955-6.969,6.955-19.128,0-27.136C167.869,429.199,155.509,428.68,148.059,436.168z"/>
		<path d="M148.755,175.194c5.909,7.266,21.197,7.266,27.105,0c6.955-6.969,7.541-19.647,0-27.136L116.786,89.71
			c-7.541-7.488-20.159-8.007-27.113,0c-7.993,6.969-8.037,19.128,0,27.061L148.755,175.194z"/>
		<path d="M121.649,305.829c0-10.75-8.341-19.054-19.113-19.054H19.128c-10.772,0-19.113,8.304-19.113,19.054
			c0,10.824,8.341,19.499,19.113,19.499h83.408C113.309,325.328,121.649,316.653,121.649,305.829z"/>
	</g>
</g>
<g>
</g>
<g>
</g>
<g>
</g>
<g>
</g>
<g>
</g>
<g>
</g>
<g>
</g>
<g>
</g>
<g>
</g>
<g>
</g>
<g>
</g>
<g>
</g>
<g>
</g>
<g>
</g>
<g>
</g>
</svg>
