<?xml version="1.0" encoding="iso-8859-1"?>
<!-- Generator: Adobe Illustrator 16.0.0, SVG Export Plug-In . SVG Version: 6.00 Build 0)  -->
<!DOCTYPE svg PUBLIC "-//W3C//DTD SVG 1.1//EN" "http://www.w3.org/Graphics/SVG/1.1/DTD/svg11.dtd">
<svg version="1.1" id="Capa_1" xmlns="http://www.w3.org/2000/svg" xmlns:xlink="http://www.w3.org/1999/xlink" x="0px" y="0px"
	 width="792px" height="792px" viewBox="0 0 792 792" style="enable-background:new 0 0 792 792;" xml:space="preserve">
<g>
	<g>
		<path d="M395.788,304.152c42.027,0,77.984-14.733,107.885-44.625c29.893-29.901,44.625-65.857,44.625-107.885
			c0-42.028-14.844-77.448-44.625-107.016C473.669,14.835,437.815,0,395.788,0C353.76,0,318.34,14.835,288.337,44.625
			c-29.791,29.568-44.625,64.988-44.625,107.016c0,42.028,14.733,77.983,44.625,107.885
			C318.229,289.418,353.76,304.152,395.788,304.152z M322.564,78.418c20.362-20.362,45.06-30.761,73.224-30.761
			c29.023,0,53.285,10.398,73.658,30.761c20.361,20.362,30.76,45.06,30.76,73.224c0,29.032-10.398,53.721-30.76,74.092
			c-20.373,20.362-44.635,30.326-73.658,30.326c-28.164,0-52.861-9.964-73.224-30.326c-20.362-20.372-30.761-45.06-30.761-74.092
			C291.804,123.478,302.202,98.78,322.564,78.418z"/>
		<path d="M645.776,538.546v-10.832c0-104.438-93.559-196.702-197.996-196.702h-51.123h-50.699
			c-53.748,0-100.083,21.666-138.636,59.359c-38.562,37.693-61.966,83.557-61.966,137.343v10.832v201.462
			c0,29.467,22.969,51.992,52.427,51.992h198.874h197.561c14.299,0,26.758-5.306,36.834-15.158
			c10.287-10.075,15.592-22.101,15.592-36.834V538.546C646.644,571.47,645.776,571.035,645.776,538.546z M594.218,744.343H396.657
			H197.783c-3.032,0-4.326-1.294-4.326-4.335v-77.549V538.546v-0.868c0-41.594,14.179-77.66,42.888-108.319
			c28.912-30.862,64.128-47.657,105.288-50.689l35.086,46.363l-38.127,229.625l57.196,64.988l57.621-64.988l-38.127-229.625
			l35.096-46.363c39.855,3.032,73.658,19.068,101.82,47.657c28.154,28.599,45.486,62.77,45.486,103.116v8.235v0.868l0.869,201.462
			C598.562,743.049,597.249,744.343,594.218,744.343z"/>
	</g>
</g>
<g>
</g>
<g>
</g>
<g>
</g>
<g>
</g>
<g>
</g>
<g>
</g>
<g>
</g>
<g>
</g>
<g>
</g>
<g>
</g>
<g>
</g>
<g>
</g>
<g>
</g>
<g>
</g>
<g>
</g>
</svg>
