<?xml version="1.0" encoding="iso-8859-1"?>
<!-- Generator: Adobe Illustrator 16.0.0, SVG Export Plug-In . SVG Version: 6.00 Build 0)  -->
<!DOCTYPE svg PUBLIC "-//W3C//DTD SVG 1.1//EN" "http://www.w3.org/Graphics/SVG/1.1/DTD/svg11.dtd">
<svg version="1.1" id="Capa_1" xmlns="http://www.w3.org/2000/svg" xmlns:xlink="http://www.w3.org/1999/xlink" x="0px" y="0px"
	 width="792px" height="792px" viewBox="0 0 792 792" style="enable-background:new 0 0 792 792;" xml:space="preserve">
<g>
	<path d="M644.824,137.894c-8.906-8.923-20.135-13.55-32.916-13.55h-54.216v-1.57c0-11.98-9.295-21.316-21.308-21.316h-29.43
		c-0.389-6.94-2.09-15.533-5.42-25.53c-7.519-22.555-21.465-40.484-40.666-54.612C441.734,7.188,420.204,0,396.194,0
		c-24.398,0-46.061,7.023-65.452,21.316c-18.953,13.963-32.759,32.057-40.277,54.612c-3.33,9.997-5.032,18.589-5.42,25.53h-29.43
		c-12.013,0-21.308,9.336-21.308,21.316v1.57H180.48c-26.339,0-46.862,20.49-46.862,46.846v574.295
		c0,26.356,20.523,46.516,46.862,46.516h158.4h42.211h230.817c12.781,0,24.01-4.709,32.916-13.55
		c8.906-8.923,13.558-19.746,13.558-32.966V514.726v-42.219V171.189C658.382,157.97,653.73,146.734,644.824,137.894z
		 M338.104,75.928c12.658-19.994,34.469-33.296,58.091-33.296c23.621,0,45.045,13.302,57.702,33.296
		c4.775,7.519,8.138,15.863,9.683,25.53h-9.683h-15.104h-84.041h-16.648h-9.683C329.965,91.792,333.328,83.447,338.104,75.928z
		 M276.915,167.307v-17.433v-5.784h50.729h20.911h96.046h19.755h50.729v5.784v17.433v68.905h-238.17V167.307z M615.783,472.507
		v84.769v188.209c0,2.727-1.165,3.884-3.875,3.884H423.69h-84.81h-158.4c-2.71,0-4.263-1.157-4.263-3.884V171.189
		c0-2.727,1.553-3.883,4.263-3.883h53.827v90.222c0,11.979,9.295,21.316,21.308,21.316h280.77c12.013,0,21.308-9.336,21.308-21.316
		v-90.222h54.216c2.71,0,3.875,1.156,3.875,3.883V472.507z"/>
</g>
<g>
</g>
<g>
</g>
<g>
</g>
<g>
</g>
<g>
</g>
<g>
</g>
<g>
</g>
<g>
</g>
<g>
</g>
<g>
</g>
<g>
</g>
<g>
</g>
<g>
</g>
<g>
</g>
<g>
</g>
</svg>
