<?xml version="1.0" encoding="iso-8859-1"?>
<!-- Generator: Adobe Illustrator 16.0.0, SVG Export Plug-In . SVG Version: 6.00 Build 0)  -->
<!DOCTYPE svg PUBLIC "-//W3C//DTD SVG 1.1//EN" "http://www.w3.org/Graphics/SVG/1.1/DTD/svg11.dtd">
<svg version="1.1" id="Capa_1" xmlns="http://www.w3.org/2000/svg" xmlns:xlink="http://www.w3.org/1999/xlink" x="0px" y="0px"
	 width="792px" height="792px" viewBox="0 0 792 792" style="enable-background:new 0 0 792 792;" xml:space="preserve">
<g>
	<g>
		<rect x="501.637" y="618.331" width="195.387" height="46.901"/>
		<path d="M577.625,745.479c0,2.721-1.166,3.879-3.879,3.879h-431.86c-2.712,0-3.879-1.158-3.879-3.879V46.521
			c0-2.712,1.167-3.879,3.879-3.879h158.939v230.279c0,26.357,20.155,47.679,46.521,47.679h230.271v256.248h43.031V320.6v-43.031
			h-0.778L343.475,0.777L342.698,0h-41.873H141.886c-13.183,0-24.422,4.648-33.337,13.572c-8.924,8.916-13.572,20.155-13.572,32.949
			v698.959c0,26.366,20.543,46.521,46.909,46.521h431.86c12.794,0,23.942-4.747,32.949-13.563
			c9.213-9.015,13.96-19.774,13.96-32.957v-38.374h-43.03V745.479z M343.475,61.639l215.93,215.93H347.354
			c-2.713,0-3.879-1.546-3.879-4.648V61.639L343.475,61.639z"/>
	</g>
</g>
<g>
</g>
<g>
</g>
<g>
</g>
<g>
</g>
<g>
</g>
<g>
</g>
<g>
</g>
<g>
</g>
<g>
</g>
<g>
</g>
<g>
</g>
<g>
</g>
<g>
</g>
<g>
</g>
<g>
</g>
</svg>
