<?xml version="1.0" encoding="iso-8859-1"?>
<!-- Generator: Adobe Illustrator 16.0.0, SVG Export Plug-In . SVG Version: 6.00 Build 0)  -->
<!DOCTYPE svg PUBLIC "-//W3C//DTD SVG 1.1//EN" "http://www.w3.org/Graphics/SVG/1.1/DTD/svg11.dtd">
<svg version="1.1" id="Capa_1" xmlns="http://www.w3.org/2000/svg" xmlns:xlink="http://www.w3.org/1999/xlink" x="0px" y="0px"
	 width="612px" height="612px" viewBox="0 0 612 612" style="enable-background:new 0 0 612 612;" xml:space="preserve">
<g>
	<path d="M605.428,324.062L497.062,238.98c-2.388-2.388-5.675-3.586-9.553-3.586H322.416v-30.449h182.709
		c9.254,0,16.419-7.464,16.419-16.718V17.765c0-9.254-7.165-16.418-16.419-16.418H124.791c-3.885,0-7.445,1.216-10.451,3.579
		L6.267,90.007C1.942,93.415,0,98.07,0,103.445c0,5.076,1.936,9.438,6.267,12.833l108.073,84.789
		c3.337,2.617,6.566,3.878,10.451,3.878h164.488v30.449H107.175c-4.478,0-8.362,1.497-11.643,4.777
		c-3.286,3.286-5.076,7.165-5.076,11.642v170.762c0,9.26,7.464,16.424,16.718,16.424h182.104v155.234
		c0,9.254,7.165,16.42,16.418,16.42c9.261,0,16.719-7.166,16.719-16.42V438.999h165.093c3.878,0,7.165-1.197,9.553-3.584
		l108.366-85.082c4.368-3.434,6.572-7.764,6.572-13.432C612,331.526,609.797,327.487,605.428,324.062z M130.16,171.808
		l-86.571-68.363l86.571-69.261h358.54v137.624H322.416h-33.137H130.16z M481.241,405.856H322.416h-33.137H123.594V268.532h165.685
		h33.137h158.825l87.47,68.37L481.241,405.856z"/>
</g>
<g>
</g>
<g>
</g>
<g>
</g>
<g>
</g>
<g>
</g>
<g>
</g>
<g>
</g>
<g>
</g>
<g>
</g>
<g>
</g>
<g>
</g>
<g>
</g>
<g>
</g>
<g>
</g>
<g>
</g>
</svg>
