<?xml version="1.0" encoding="iso-8859-1"?>
<!-- Generator: Adobe Illustrator 16.0.0, SVG Export Plug-In . SVG Version: 6.00 Build 0)  -->
<!DOCTYPE svg PUBLIC "-//W3C//DTD SVG 1.1//EN" "http://www.w3.org/Graphics/SVG/1.1/DTD/svg11.dtd">
<svg version="1.1" id="Capa_1" xmlns="http://www.w3.org/2000/svg" xmlns:xlink="http://www.w3.org/1999/xlink" x="0px" y="0px"
	 width="792px" height="792px" viewBox="0 0 792 792" style="enable-background:new 0 0 792 792;" xml:space="preserve">
<g>
	<path d="M658.061,277.569L381.659,0.777L380.881,0h-41.864H180.069c-13.183,0-24.422,4.648-33.337,13.572
		c-8.916,8.916-13.572,20.155-13.572,32.949v698.959c0,26.366,20.552,46.521,46.909,46.521h431.86
		c12.795,0,23.943-4.747,32.949-13.563c9.213-9.015,13.961-19.774,13.961-32.957V320.6v-43.031H658.061z M381.659,61.639
		l215.929,215.93H385.529c-2.713,0-3.871-1.166-3.871-3.879V61.639z M615.809,745.479c0,2.721-1.166,3.879-3.879,3.879h-431.86
		c-2.712,0-3.879-1.158-3.879-3.879V46.521c0-2.712,1.167-3.879,3.879-3.879h158.948V273.69c0,12.794,4.16,24.133,13.174,33.338
		c8.825,9.015,20.163,13.572,33.338,13.572h230.279V745.479z"/>
</g>
<g>
</g>
<g>
</g>
<g>
</g>
<g>
</g>
<g>
</g>
<g>
</g>
<g>
</g>
<g>
</g>
<g>
</g>
<g>
</g>
<g>
</g>
<g>
</g>
<g>
</g>
<g>
</g>
<g>
</g>
</svg>
