<?xml version="1.0" encoding="iso-8859-1"?>
<!-- Generator: Adobe Illustrator 16.0.0, SVG Export Plug-In . SVG Version: 6.00 Build 0)  -->
<!DOCTYPE svg PUBLIC "-//W3C//DTD SVG 1.1//EN" "http://www.w3.org/Graphics/SVG/1.1/DTD/svg11.dtd">
<svg version="1.1" id="Capa_1" xmlns="http://www.w3.org/2000/svg" xmlns:xlink="http://www.w3.org/1999/xlink" x="0px" y="0px"
	 width="792px" height="792px" viewBox="0 0 792 792" style="enable-background:new 0 0 792 792;" xml:space="preserve">
<g>
	<g>
		<path d="M658.061,277.569L381.659,0.777L380.881,0h-41.873H180.069c-13.183,0-24.422,4.648-33.337,13.572
			c-8.916,8.916-13.572,20.155-13.572,32.949v698.959c0,26.366,20.543,46.521,46.909,46.521h431.86
			c12.795,0,23.943-4.747,32.949-13.563c9.213-9.015,13.961-19.774,13.961-32.957V320.6v-43.031H658.061z M381.659,61.639
			l215.929,215.93H385.529c-2.713,0-3.871-1.166-3.871-3.879V61.639z M615.809,745.479c0,2.721-1.166,3.879-3.879,3.879h-431.86
			c-2.712,0-3.879-1.158-3.879-3.879V46.521c0-2.712,1.167-3.879,3.879-3.879h158.939V273.69c0,12.794,4.168,24.133,13.183,33.338
			c8.825,9.015,20.163,13.572,33.338,13.572h230.279V745.479z"/>
		<path d="M428.172,607.861l-0.77,4.647c0,3.879,1.248,7.7,3.49,11.248c4.35,6.922,10.461,10.462,18.219,10.462
			c4.26,0,7.75-1.158,11.24-3.871l114.361-73.274c12.861-8.237,12.928-28.293,0-36.439l-114.361-72.101
			c-3.549-2.241-7.369-3.49-11.629-3.49c-1.555,0-3.094,0.058-4.656,0.389c-5.797,1.216-10.098,4.243-13.174,9.305
			c-2.357,3.861-3.49,7.749-3.49,12.017l0.77,4.647c0.975,5.855,4.301,10.421,9.303,13.572l85.682,53.881l-85.682,55.824
			C432.521,597.912,429.146,602.014,428.172,607.861z"/>
		<path d="M361.107,454.736c-6.029-9.801-19.725-12.34-29.459-6.203l-114.362,72.101c-6.368,4.02-9.304,10.471-9.304,18.22
			c0,8.146,3.143,14.274,9.304,18.22l114.362,73.274c3.49,2.713,6.972,3.871,11.239,3.871c7.758,0,13.795-3.581,18.22-10.462
			c6.046-9.403,4.003-22.454-6.203-29.079l-86.061-55.824l86.061-53.881C364.655,478.86,367.483,465.091,361.107,454.736z"/>
	</g>
</g>
<g>
</g>
<g>
</g>
<g>
</g>
<g>
</g>
<g>
</g>
<g>
</g>
<g>
</g>
<g>
</g>
<g>
</g>
<g>
</g>
<g>
</g>
<g>
</g>
<g>
</g>
<g>
</g>
<g>
</g>
</svg>
