<?xml version="1.0" encoding="iso-8859-1"?>
<!-- Generator: Adobe Illustrator 16.0.0, SVG Export Plug-In . SVG Version: 6.00 Build 0)  -->
<!DOCTYPE svg PUBLIC "-//W3C//DTD SVG 1.1//EN" "http://www.w3.org/Graphics/SVG/1.1/DTD/svg11.dtd">
<svg version="1.1" id="Capa_1" xmlns="http://www.w3.org/2000/svg" xmlns:xlink="http://www.w3.org/1999/xlink" x="0px" y="0px"
	 width="612px" height="612px" viewBox="0 0 612 612" style="enable-background:new 0 0 612 612;" xml:space="preserve">
<g>
	<g>
		<path d="M446.972,457.835H388.36c-7.516-41.746-21.681-80.543-42.983-115.684c-26.189-43.285-58.605-77.785-98.594-102.217
			c-7.227-4.425-14.351-3.207-20.135,3.014c-5.951,6.413-6.618,13.53-2.11,21.033c1.206,1.218,7.567,11.415,18.039,35.141
			c5.156,11.735,10.081,24.688,14.73,38.796c4.674,14.172,8.869,30.973,12.325,50.467c3.457,19.623,5.406,39.117,5.406,58.354
			v11.095h-56.508c-6.913,0-12.023,3.591-15.333,10.517c-0.897,2.437-1.199,4.553-1.199,6.027c0,4.489,1.514,8.4,4.81,11.735
			l113.92,114.529c6.297,6.284,17.135,6.284,23.444,0L458.7,486.114c4.816-4.81,6.361-10.581,3.604-17.763
			C459.649,461.426,454.487,457.835,446.972,457.835z M332.449,565.438l-73.944-74.194h32.166c9.317,0,15.505-6.349,16.531-15.069
			c0.776-6.605,1.199-16.545,1.199-29.435c0-42.387-7.509-85.672-22.239-129.277c39.675,46.619,63.375,99.78,71.539,159.353
			c1.154,8.401,8.112,14.429,16.532,14.429h32.762L332.449,565.438z"/>
		<path d="M593.358,207.166c-12.325-22.572-28.856-40.592-49.896-53.481c-5.11-37.578-20.514-70.026-45.991-97.151
			c-30.133-32.063-70.937-49.89-113.317-49.89c-33.967,0-64.928,10.26-92.284,30.652c-27.35,20.456-46.889,47.197-58.611,79.965
			c-6.316-0.897-11.421-1.154-14.73-1.154c-23.444,0-44.548,7.118-63.125,21.931c-18.392,14.621-30.96,33.346-37.873,56.175h-6.611
			c-30.357,0-56.514,11.414-78.452,34.564C10.818,251.669,0,279.308,0,311.435c0,28.601,8.625,53.93,26.452,76.054
			c17.942,22.315,40.579,35.462,67.634,39.694c3.309,0.897,8.118,1.218,14.729,1.218h109.713v-33.346H108.815
			c-3.912,0-6.919-0.32-9.016-0.641c-18.943-2.95-34.872-12.312-47.498-27.959c-12.62-15.646-18.937-33.923-18.937-55.021
			c0-23.149,7.516-42.644,22.848-59.188c15.326-16.544,33.365-24.624,54.706-24.624c11.722,0,23.746,3.271,36.071,9.875
			c-0.301-2.116-0.603-5.387-0.603-9.875c0-21.354,6.913-39.694,21.04-55.021s30.96-23.149,51.102-23.149
			c14.127,0,27.055,4.232,38.174,12.312c3.905-34.564,18.039-63.742,42.08-86.891c24.355-23.406,52.602-35.141,85.371-35.141
			c34.564,0,64.325,13.21,89.271,39.374c24.951,26.164,37.578,58.034,38.174,95.612c20.143,8.4,36.007,22.252,48.396,41.426
			c12.254,18.981,18.635,40.592,18.635,64.382c0,29.114-8.433,54.379-25.548,76.053c-16.853,21.29-38.168,33.987-64.325,37.835
			c-2.398,0.385-6.912,0.641-13.523,0.641h-54.11V428.4h54.11c9.92,0,16.531-0.32,19.834-1.218
			c33.968-5.387,62.016-21.867,84.165-49.891C601.271,349.397,612,316.886,612,280.526C612,254.362,605.684,229.674,593.358,207.166
			z"/>
	</g>
</g>
<g>
</g>
<g>
</g>
<g>
</g>
<g>
</g>
<g>
</g>
<g>
</g>
<g>
</g>
<g>
</g>
<g>
</g>
<g>
</g>
<g>
</g>
<g>
</g>
<g>
</g>
<g>
</g>
<g>
</g>
</svg>
