<?xml version="1.0" encoding="iso-8859-1"?>
<!-- Generator: Adobe Illustrator 16.0.0, SVG Export Plug-In . SVG Version: 6.00 Build 0)  -->
<!DOCTYPE svg PUBLIC "-//W3C//DTD SVG 1.1//EN" "http://www.w3.org/Graphics/SVG/1.1/DTD/svg11.dtd">
<svg version="1.1" id="Capa_1" xmlns="http://www.w3.org/2000/svg" xmlns:xlink="http://www.w3.org/1999/xlink" x="0px" y="0px"
	 width="612.002px" height="612.002px" viewBox="0 0 612.002 612.002" style="enable-background:new 0 0 612.002 612.002;"
	 xml:space="preserve">
<g>
	<path d="M611.992,103.909c-0.382-28.548-10.945-52.614-31.211-72.693C560.32,10.95,535.872,0.76,507.324,0.387
		c-0.381,0-0.763,0-0.763,0c-28.158,0-52.135,9.897-71.548,29.303l-43.009,43.009l-6.09-6.463
		c-8.858-9.418-20.168-12.942-32.729-12.942c-13.323,0-23.977,4.19-32.729,12.942l-39.964,39.964
		c-8.752,8.752-13.324,19.795-13.324,32.729c0,12.934,4.36,24.196,13.324,32.729l23.595,22.458L64.695,432.736
		c-6.869,6.854-16.214,23.49-28.158,49.099c-1.38,2.947-3.345,7.648-6.471,14.079l-6.853,14.087
		c-4.092,8.412-8.014,14.444-11.416,18.65C3.784,538.524,0,548.438,0,558.336c0,10.271,6.089,21.695,18.642,34.247
		c12.179,12.18,23.213,19.032,33.493,19.032h1.908c9.516,0,18.796-4.108,28.54-11.416c7.015-5.261,13.778-8.599,19.414-11.416
		c8.834-4.417,18.114-8.622,28.166-13.323c25.739-12.05,41.482-22.077,48.335-28.922l238.629-238.637l22.458,22.84
		c9.427,9.589,20.169,14.079,32.729,14.079c11.798,0,22.824-4.182,32.729-14.079l39.964-39.964
		c8.753-8.753,13.315-19.787,13.315-32.729s-4.562-23.977-13.315-32.729l-6.472-5.326l43.009-43.008
		C601.713,156.815,612.373,132.457,611.992,103.909z M148.812,516.846c-4.953,4.953-17.668,10.223-36.538,19.413
		c-10.677,5.676-20.177,10.279-28.929,14.079l-24.74,14.843c-0.382,0.763-1.9,1.908-4.182,3.045
		c-1.145-0.374-3.231-2.104-6.089-5.326l-3.045-3.427l-1.526-1.9l2.281-4.944c6.471-9.516,11.359-17.546,14.851-23.977
		c6.406-11.838,10.839-21.784,14.079-28.93c9.703-21.402,16.929-33.298,20.168-36.537l238.629-238.629l53.669,53.661
		L148.812,516.846z M551.859,147.299l-72.319,72.693l35.019,35.782c1.884,1.916,1.9,3.418,0,5.326l-39.963,39.964
		c-1.146,1.137-3.427,1.137-5.326,0L310.178,141.973c-1.9-1.9-1.916-4.206,0-6.089l40.727-39.964c1.153-1.128,3.427-1.145,5.326,0
		l35.774,36.538l72.692-73.075c11.392-11.448,25.122-17.124,41.49-17.124c0.374,0.382,1.137,0.374,1.519,0.382
		c17.132,0.374,31.593,6.471,43.391,18.269c11.797,11.797,18.252,26.25,18.649,43.771
		C570.112,121.033,563.625,135.469,551.859,147.299z"/>
</g>
<g>
</g>
<g>
</g>
<g>
</g>
<g>
</g>
<g>
</g>
<g>
</g>
<g>
</g>
<g>
</g>
<g>
</g>
<g>
</g>
<g>
</g>
<g>
</g>
<g>
</g>
<g>
</g>
<g>
</g>
</svg>
