<?xml version="1.0" encoding="iso-8859-1"?>
<!-- Generator: Adobe Illustrator 16.0.0, SVG Export Plug-In . SVG Version: 6.00 Build 0)  -->
<!DOCTYPE svg PUBLIC "-//W3C//DTD SVG 1.1//EN" "http://www.w3.org/Graphics/SVG/1.1/DTD/svg11.dtd">
<svg version="1.1" id="Capa_1" xmlns="http://www.w3.org/2000/svg" xmlns:xlink="http://www.w3.org/1999/xlink" x="0px" y="0px"
	 width="612px" height="612px" viewBox="0 0 612 612" style="enable-background:new 0 0 612 612;" xml:space="preserve">
<g>
	<path d="M600.387,162.7c-7.714-7.883-17.246-11.938-28.525-11.938h-482.3c-10.947,0-20.239,3.977-28.2,11.938
		c-7.961,7.961-11.938,17.253-11.938,28.193v54.404h-31.18C7.961,245.296,0,253.258,0,263.541v1.323v1.996v79.603v1.33v1.988
		c0,10.283,7.961,18.244,18.243,18.244h31.179V421.1c0,10.947,3.977,20.238,11.938,28.199s17.253,11.939,28.2,11.939h482.301
		c11.279,0,20.981-3.9,28.525-11.613C608.101,441.748,612,432.047,612,421.1V190.893C612,179.953,607.938,170.414,600.387,162.7z
		 M575.181,421.1c0,2.32-0.998,3.318-3.318,3.318H89.561c-1.33,0-3.319-1.988-3.319-3.318V190.893c0-1.323,1.989-3.312,3.319-3.312
		h482.301c2.32,0,3.318,0.991,3.318,3.312V421.1L575.181,421.1z"/>
</g>
<g>
</g>
<g>
</g>
<g>
</g>
<g>
</g>
<g>
</g>
<g>
</g>
<g>
</g>
<g>
</g>
<g>
</g>
<g>
</g>
<g>
</g>
<g>
</g>
<g>
</g>
<g>
</g>
<g>
</g>
</svg>
