<?xml version="1.0" encoding="iso-8859-1"?>
<!-- Generator: Adobe Illustrator 16.0.0, SVG Export Plug-In . SVG Version: 6.00 Build 0)  -->
<!DOCTYPE svg PUBLIC "-//W3C//DTD SVG 1.1//EN" "http://www.w3.org/Graphics/SVG/1.1/DTD/svg11.dtd">
<svg version="1.1" id="Capa_1" xmlns="http://www.w3.org/2000/svg" xmlns:xlink="http://www.w3.org/1999/xlink" x="0px" y="0px"
	 width="611.998px" height="611.998px" viewBox="0 0 611.998 611.998" style="enable-background:new 0 0 611.998 611.998;"
	 xml:space="preserve">
<g>
	<g>
		<path d="M606.141,495.691l-9.273-9.894l-33.209-32.935l-9.574-9.255l-28.422-28.722c9.874-16.147,14.654-34.083,13.761-53.55
			c-0.9-19.723-7.06-37.275-18.548-52.657c-2.579-3.447-5.387-6.893-9.274-10.148c-18.248-18.893-40.689-28.147-66.718-28.147
			s-48.316,9.446-67.317,28.147c-18.695,18.382-28.122,40.657-28.122,67.018c0,26.297,9.574,48.444,28.122,67.019
			c15.561,15.51,34.108,24.828,55.95,27.189c22.135,2.426,42.183-2.106,60.438-13.148l26.922,26.936l26.328,26.935l5.387,5.681
			l21.542,21.509c0.894,0.319,1.493,0.894,2.394,1.787c10.768,8.106,18.331,2.171,25.729-5.042
			C610.717,516.116,617.189,507.436,606.141,495.691z M488.266,408.632c-12.344,12.191-26.928,18.51-43.982,18.51
			c-17.048,0-31.709-6.255-43.977-18.51c-11.968-11.999-17.954-26.68-17.954-43.977c0-17.36,5.834-32.168,17.954-44.295
			c12.114-12.127,26.929-17.936,43.977-17.936c17.055,0,31.792,5.872,43.982,17.936c12.345,12.19,18.248,26.935,18.248,44.295
			C506.514,381.952,500.457,396.568,488.266,408.632z"/>
		<path d="M33.209,497.479V165.389v-42.827l230.969,235.775c3.255,3.318,7.181,5.105,11.667,5.105h0.6
			c4.787,0,9.012-1.787,12.267-5.105l230.369-235.775v42.827v90.634h33.509V114.52c0-9.893-3.74-18.382-10.773-25.467
			c-7.027-7.021-15.555-10.723-25.729-10.723H36.202c-9.874,0-18.625,3.51-25.728,10.723C3.51,96.202,0,104.626,0,114.52v382.959
			c0,9.893,3.51,18.318,10.474,25.403c7.104,7.275,15.854,10.786,25.728,10.786h441.89v-33.189H36.202
			C34.109,500.479,33.209,499.585,33.209,497.479z M483.479,111.52L276.445,323.615L68.812,111.52H483.479z"/>
	</g>
</g>
<g>
</g>
<g>
</g>
<g>
</g>
<g>
</g>
<g>
</g>
<g>
</g>
<g>
</g>
<g>
</g>
<g>
</g>
<g>
</g>
<g>
</g>
<g>
</g>
<g>
</g>
<g>
</g>
<g>
</g>
</svg>
