<?xml version="1.0" encoding="iso-8859-1"?>
<!-- Generator: Adobe Illustrator 16.0.0, SVG Export Plug-In . SVG Version: 6.00 Build 0)  -->
<!DOCTYPE svg PUBLIC "-//W3C//DTD SVG 1.1//EN" "http://www.w3.org/Graphics/SVG/1.1/DTD/svg11.dtd">
<svg version="1.1" id="Capa_1" xmlns="http://www.w3.org/2000/svg" xmlns:xlink="http://www.w3.org/1999/xlink" x="0px" y="0px"
	 width="612.004px" height="612.004px" viewBox="0 0 612.004 612.004" style="enable-background:new 0 0 612.004 612.004;"
	 xml:space="preserve">
<g>
	<g>
		<path d="M607.283,217.529L493.307,103.552c-4.793-4.793-10.485-6.331-17.646-3.587c-6.898,2.642-10.473,7.773-10.473,15.253
			v58.039c-41.579,7.48-80.152,21.578-115.177,42.779c-43.053,26.064-77.376,58.326-101.711,98.124
			c-4.397,7.192-3.223,14.603,2.993,20.34c5.457,5.042,14.36,5.687,20.34,1.793c0.3-0.3,0.3-0.3,0.6-0.3
			c4.187-2.687,8.341-5.144,12.267-7.18c4.155-2.151,12.866-6.28,26.326-11.96c13.459-5.687,26.325-10.772,39.186-14.659
			c12.866-3.893,29.02-7.805,47.865-11.073c19.146-3.312,37.992-5.086,56.245-5.086h11.066v56.544c0,7.48,3.58,12.586,10.473,15.253
			c2.381,0.926,4.487,1.2,5.98,1.2c4.486,0,8.366-1.506,11.666-4.786l113.978-113.383
			C613.583,234.601,613.57,223.815,607.283,217.529z M498.093,302.493v-31.712c0-8.673-6.279-16.153-14.659-16.453
			c-6.58-0.9-16.453-1.2-29.312-1.2c-42.779,0-85.857,7.18-128.637,21.839c45.472-38.592,98.424-62.199,158.549-70.898
			c8.08-1.168,14.061-8.08,14.061-16.753v-32.312l74.19,74.191L498.093,302.493z"/>
		<path d="M438.262,477.195c0,1.199-1.794,2.993-3.287,2.993H36.199c-2.093,0-2.993-0.9-2.993-2.993V186.717
			c0-2.093,0.9-2.994,2.993-2.994H365.87v-33.505H36.199c-18.846,0-34.105,14.66-36.199,32.912v3.587v290.479v3.593
			c2.093,18.246,17.353,32.605,36.199,32.605h398.776c10.167,0,18.917-3.517,25.727-10.473c6.956-7.104,10.473-15.853,10.473-25.726
			v-98.718h-32.912V477.195z"/>
	</g>
</g>
<g>
</g>
<g>
</g>
<g>
</g>
<g>
</g>
<g>
</g>
<g>
</g>
<g>
</g>
<g>
</g>
<g>
</g>
<g>
</g>
<g>
</g>
<g>
</g>
<g>
</g>
<g>
</g>
<g>
</g>
</svg>
