<?xml version="1.0" encoding="iso-8859-1"?>
<!-- Generator: Adobe Illustrator 16.0.0, SVG Export Plug-In . SVG Version: 6.00 Build 0)  -->
<!DOCTYPE svg PUBLIC "-//W3C//DTD SVG 1.1//EN" "http://www.w3.org/Graphics/SVG/1.1/DTD/svg11.dtd">
<svg version="1.1" id="Capa_1" xmlns="http://www.w3.org/2000/svg" xmlns:xlink="http://www.w3.org/1999/xlink" x="0px" y="0px"
	 width="612px" height="612px" viewBox="0 0 612 612" style="enable-background:new 0 0 612 612;" xml:space="preserve">
<g>
	<g>
		<path d="M586.901,185.207c-16.454-37.448-38.141-69.6-65.245-96.705c-27.105-27.104-59.649-48.313-97.376-64.246
			C386.718,8.395,347.656,0.164,306.496,0.164h-3.676c-41.496,0-80.979,8.702-118.455,25.099
			c-37.477,16.397-69.85,38.562-97.033,66.252c-27.019,27.519-48.127,60.256-63.91,98.04C7.752,227.06,0,266.178,0,307.339v1.67
			c0,41.16,8.302,80.672,24.756,118.12c16.333,37.17,38.397,69.35,65.588,96.369c27.354,27.183,59.927,48.434,97.368,64.245
			c37.848,15.977,76.959,24.093,118.12,24.093h3.341c41.496,0,80.979-8.702,118.791-25.099
			c37.812-16.397,69.85-38.562,97.033-66.252c27.025-27.519,48.355-60.163,63.91-98.04C604.134,385.369,612,346.821,612,306.332
			v-3.341C612,261.831,603.234,222.37,586.901,185.207z M562.809,386.64l-33.793-11.044c-2.342-0.999-4.683-1.334-7.024-1.334
			c-5.689,0-10.379,2.677-14.056,8.03l-63.239,92.015c-5.025,5.689-5.025,14.727,0,20.416l19.402,28.775
			c-45.836,33.793-97.033,50.861-154.255,51.524v-39.146c-0.999-9.701-5.468-15.298-13.72-17.732l-106.406-31.452
			c-2.334-0.692-4.347-1.006-6.353-1.006c-5.689,0-9.851,2.484-13.385,7.023l-23.421,30.117
			c-13.72-11.043-23.7-19.802-30.117-26.098c-29.389-28.84-50.861-62.911-64.246-102.059l33.458-13.72
			c7.545-3.091,11.714-8.366,11.714-17.061V252.793v-0.664c0-7.695-5.511-14.777-13.049-17.068L50.19,224.689
			c16.725-54.209,47.849-98.375,93.692-132.839l24.756,30.11c3.955,4.811,8.031,7.367,13.72,7.367c2.006,0,4.005-0.364,6.025-1.006
			l106.406-33.793c8.773-2.791,13.191-9.037,13.049-17.739l-0.671-39.818c55.209,0,106.405,16.397,153.255,48.856l-23.093,35.471
			c-2.227,3.419-3.341,6.689-3.341,10.037c0,3.684,1.356,7.01,4.012,10.708l64.918,90.344c3.79,5.275,8.03,8.031,13.72,8.031
			c2.341,0,4.618-0.493,7.024-1.335l39.146-13.72c8.031,24.421,12.05,50.526,12.05,78.294
			C574.858,333.437,570.84,360.877,562.809,386.64z"/>
		<path d="M350.333,206.287c-3.769-4.954-8.366-7.36-13.72-7.36c-2.342,0-4.683,0.329-7.024,1.335l-104.064,34.129
			c-8.452,2.77-12.492,8.702-12.378,17.739l1.335,109.746c0.1,8.031,4.683,15.397,12.378,17.068l102.729,32.794
			c2.342,0.999,4.683,1.335,7.024,1.335c5.354,0,10.022-2.355,13.72-7.36l66.252-89.673c2.342-4.019,3.684-8.03,3.684-11.714
			c0-3.348-1.342-7.024-3.684-11.043L350.333,206.287z"/>
	</g>
</g>
<g>
</g>
<g>
</g>
<g>
</g>
<g>
</g>
<g>
</g>
<g>
</g>
<g>
</g>
<g>
</g>
<g>
</g>
<g>
</g>
<g>
</g>
<g>
</g>
<g>
</g>
<g>
</g>
<g>
</g>
</svg>
