<?xml version="1.0" encoding="iso-8859-1"?>
<!-- Generator: Adobe Illustrator 16.0.0, SVG Export Plug-In . SVG Version: 6.00 Build 0)  -->
<!DOCTYPE svg PUBLIC "-//W3C//DTD SVG 1.1//EN" "http://www.w3.org/Graphics/SVG/1.1/DTD/svg11.dtd">
<svg version="1.1" id="Capa_1" xmlns="http://www.w3.org/2000/svg" xmlns:xlink="http://www.w3.org/1999/xlink" x="0px" y="0px"
	 width="612px" height="612px" viewBox="0 0 612 612" style="enable-background:new 0 0 612 612;" xml:space="preserve">
<g>
	<path d="M610.746,563.431L445.883,157.72c-2.783-6.83-7.781-10.468-15.263-10.468h-62.535c9.281-12.894,14.068-27.83,14.068-44.554
		c0-21.255-7.48-39.256-22.443-54.192c-14.962-14.937-32.911-22.405-54.154-22.405c-21.243,0-39.199,7.468-54.161,22.405
		c-14.956,14.937-22.437,32.937-22.437,54.192c0,15.831,5.087,30.767,14.962,44.554H182.58c-7.481,0-12.46,3.639-15.256,10.468
		L1.261,563.431c-2.292,5.617-1.321,10.66,1.8,15.256c3.166,4.66,7.481,7.213,13.462,7.213h578.961
		c5.981,0,10.296-2.553,13.462-7.213C612.067,574.091,613.025,569.048,610.746,563.431z M274.739,71.868
		c8.598-8.745,18.85-12.894,30.818-12.894s22.136,4.213,30.818,12.894c8.675,8.681,12.861,18.83,12.861,30.83
		c0,11.937-4.11,22.213-12.861,30.767c-8.604,8.49-18.85,12.575-30.818,12.575s-22.29-4.021-30.818-12.575
		c-8.528-8.489-12.568-18.83-12.568-30.767C262.17,90.698,266.281,80.421,274.739,71.868z M41.06,552.963l152.595-372.519h225.898
		l150.802,372.519H41.06z"/>
</g>
<g>
</g>
<g>
</g>
<g>
</g>
<g>
</g>
<g>
</g>
<g>
</g>
<g>
</g>
<g>
</g>
<g>
</g>
<g>
</g>
<g>
</g>
<g>
</g>
<g>
</g>
<g>
</g>
<g>
</g>
</svg>
