<?xml version="1.0" encoding="iso-8859-1"?>
<!-- Generator: Adobe Illustrator 16.0.0, SVG Export Plug-In . SVG Version: 6.00 Build 0)  -->
<!DOCTYPE svg PUBLIC "-//W3C//DTD SVG 1.1//EN" "http://www.w3.org/Graphics/SVG/1.1/DTD/svg11.dtd">
<svg version="1.1" id="Capa_1" xmlns="http://www.w3.org/2000/svg" xmlns:xlink="http://www.w3.org/1999/xlink" x="0px" y="0px"
	 width="612px" height="612px" viewBox="0 0 612 612" style="enable-background:new 0 0 612 612;" xml:space="preserve">
<g>
	<g>
		<path d="M589.878,238.174c-14.713-20.395-33.291-34.555-57.194-42.214c-12.843-4.097-25.462,2.494-30.058,14.605
			c-3.34,12.112,3.411,24.848,15.442,28.855c28.464,9.351,47.594,36.336,47.594,66.795c0,30.013-19.13,56.553-47.594,65.904
			c-12.031,4.008-19.076,16.832-15.442,28.855c3.055,10.063,12.103,16.298,22.122,16.298c2.093,0,4.561-0.535,7.936-1.692
			c23.761-8.016,42.677-21.642,57.194-41.769C604.581,353.417,612,330.796,612,306.216C612,280.745,604.386,258.212,589.878,238.174
			z"/>
		<path d="M463.386,7.688c-9.601-3.741-17.695-2.227-25.052,3.74l-191.612,155.32H22.959C10.019,166.748,0,177.168,0,190.171
			v231.645c0,12.913,10.019,22.978,22.959,22.978h223.762l191.612,156.566c4.141,3.384,9.19,4.987,14.614,4.987
			c3.759,0,7.071-0.891,10.438-2.493c7.071-3.385,12.522-12.112,12.522-20.484V29.418C475.908,19.8,471.731,12.328,463.386,7.688z
			 M429.988,534.564L270.1,403.914c-4.596-3.829-9.182-5.433-14.615-5.433H45.919V213.06h209.566c5.433,0,10.482-1.604,14.615-4.988
			L429.988,76.976V534.564z"/>
	</g>
</g>
<g>
</g>
<g>
</g>
<g>
</g>
<g>
</g>
<g>
</g>
<g>
</g>
<g>
</g>
<g>
</g>
<g>
</g>
<g>
</g>
<g>
</g>
<g>
</g>
<g>
</g>
<g>
</g>
<g>
</g>
</svg>
