<?xml version="1.0" encoding="iso-8859-1"?>
<!-- Generator: Adobe Illustrator 16.0.0, SVG Export Plug-In . SVG Version: 6.00 Build 0)  -->
<!DOCTYPE svg PUBLIC "-//W3C//DTD SVG 1.1//EN" "http://www.w3.org/Graphics/SVG/1.1/DTD/svg11.dtd">
<svg version="1.1" id="Capa_1" xmlns="http://www.w3.org/2000/svg" xmlns:xlink="http://www.w3.org/1999/xlink" x="0px" y="0px"
	 width="612px" height="612px" viewBox="0 0 612 612" style="enable-background:new 0 0 612 612;" xml:space="preserve">
<g>
	<g>
		<path d="M589.135,176.181c-15.167-35.34-35.473-65.695-61.077-91.146c-25.444-25.291-56.12-45.596-91.453-60.764
			C401.151,9.057,363.94,1.413,325.106,1.413v285.952H612C612,248.53,604.35,211.627,589.135,176.181z M359.871,252.914V38.684
			c55.438,7.203,103.2,31.157,143.137,71.093c39.937,39.937,63.891,87.698,71.722,143.136H359.871z"/>
		<path d="M286.58,38.056c-38.834,0-76.052,7.651-111.498,22.865c-35.333,15.167-65.849,35.313-91.453,60.757
			c-25.451,25.297-45.856,55.692-61.078,91.146C7.383,248.156,0,285.173,0,324.007c0,38.842,7.383,76.165,22.551,111.505
			c15.214,35.447,35.707,65.769,61.078,91.139c25.685,25.686,56.12,45.911,91.453,61.078
			c35.453,15.215,72.664,22.858,111.498,22.858s75.738-7.65,111.184-22.858c70.405-30.208,122.009-81.812,152.217-152.217
			c15.207-35.453,22.864-72.663,22.864-111.505H286.58V38.056z"/>
	</g>
</g>
<g>
</g>
<g>
</g>
<g>
</g>
<g>
</g>
<g>
</g>
<g>
</g>
<g>
</g>
<g>
</g>
<g>
</g>
<g>
</g>
<g>
</g>
<g>
</g>
<g>
</g>
<g>
</g>
<g>
</g>
</svg>
