<?xml version="1.0" encoding="iso-8859-1"?>
<!-- Generator: Adobe Illustrator 16.0.0, SVG Export Plug-In . SVG Version: 6.00 Build 0)  -->
<!DOCTYPE svg PUBLIC "-//W3C//DTD SVG 1.1//EN" "http://www.w3.org/Graphics/SVG/1.1/DTD/svg11.dtd">
<svg version="1.1" id="Capa_1" xmlns="http://www.w3.org/2000/svg" xmlns:xlink="http://www.w3.org/1999/xlink" x="0px" y="0px"
	 width="612px" height="612px" viewBox="0 0 612 612" style="enable-background:new 0 0 612 612;" xml:space="preserve">
<g>
	<g>
		<path d="M589.135,176.179c-15.168-35.34-35.467-65.695-61.071-91.146c-25.451-25.291-56.121-45.597-91.461-60.764
			C401.155,9.054,363.944,1.41,325.104,1.41v285.954H612C612,248.53,604.35,211.626,589.135,176.179z"/>
		<path d="M286.583,38.053c-38.841,0-76.052,7.651-111.506,22.865c-35.333,15.168-65.849,35.313-91.454,60.758
			c-25.451,25.297-45.857,55.693-61.072,91.146C7.383,248.156,0,285.173,0,324.008c0,38.841,7.383,76.166,22.551,111.506
			c15.214,35.447,35.701,65.769,61.072,91.14c25.685,25.685,56.12,45.911,91.454,61.078c35.454,15.215,72.665,22.858,111.506,22.858
			c38.834,0,75.732-7.65,111.185-22.858c70.406-30.208,122.01-81.812,152.219-152.218c15.208-35.454,22.865-72.665,22.865-111.506
			H286.583V38.053z M535.58,359.401c-5.325,40.404-19.838,76.974-43.225,109.936c-23.279,32.814-52.967,58.819-89.262,77.99
			c-36.056,19.036-74.856,28.812-116.511,28.812c-34.144,0-67.032-6.575-98.035-20.045c-31.01-13.464-57.711-31.238-80.182-53.555
			c-22.631-22.472-40.539-49.433-53.869-80.496c-13.29-30.95-19.731-63.892-19.731-98.035c0-41.655,9.461-80.456,28.498-116.511
			c19.17-36.296,45.49-65.983,78.304-89.263c32.961-23.386,69.531-37.899,109.936-43.225v248.998v35.394h35.08H535.58z"/>
	</g>
</g>
<g>
</g>
<g>
</g>
<g>
</g>
<g>
</g>
<g>
</g>
<g>
</g>
<g>
</g>
<g>
</g>
<g>
</g>
<g>
</g>
<g>
</g>
<g>
</g>
<g>
</g>
<g>
</g>
<g>
</g>
</svg>
