<?xml version="1.0" encoding="iso-8859-1"?>
<!-- Generator: Adobe Illustrator 16.0.0, SVG Export Plug-In . SVG Version: 6.00 Build 0)  -->
<!DOCTYPE svg PUBLIC "-//W3C//DTD SVG 1.1//EN" "http://www.w3.org/Graphics/SVG/1.1/DTD/svg11.dtd">
<svg version="1.1" id="Capa_1" xmlns="http://www.w3.org/2000/svg" xmlns:xlink="http://www.w3.org/1999/xlink" x="0px" y="0px"
	 width="678.342px" height="678.342px" viewBox="0 0 678.342 678.342" style="enable-background:new 0 0 678.342 678.342;"
	 xml:space="preserve">
<g>
	<g>
		<path d="M605.033,368.865h-40.797v-94.543v-36.819h-0.665L326.401,0.666L325.736,0h-35.822H154.576
			c-11.28,0-20.897,3.984-28.526,11.613s-11.612,17.246-11.612,28.193v329.06H72.977c-22.56,0-39.806,17.244-39.806,39.797v229.875
			c0,22.561,17.246,39.805,39.806,39.805h532.057c22.56,0,40.138-17.244,40.138-39.805V408.662
			C645.171,386.109,627.593,368.865,605.033,368.865z M326.401,52.742l184.761,184.761H330.711c-1.656,0-4.31-1.989-4.31-3.312
			V52.742z M151.257,39.806c0-2.321,0.998-3.319,3.319-3.319h135.338v197.704c0,10.94,3.892,20.649,11.938,28.525
			c7.876,7.714,17.578,11.605,28.858,11.605h196.706v94.543h-376.16V39.806z M608.352,638.537c0,2.328-0.998,3.318-3.318,3.318
			h-41.462H114.438H72.977c-2.321,0-3.319-0.99-3.319-3.318V408.662c0-2.32,0.998-3.311,3.319-3.311h41.461h36.819h376.16h36.819
			h40.797c2.32,0,3.318,0.99,3.318,3.311V638.537L608.352,638.537z"/>
		<path d="M545.328,535.709h-17.911H412.643c-10.282,0-18.243,8.293-18.243,17.916c0,10.283,7.961,18.902,18.243,18.902h114.774
			h17.911c10.282,0,18.243-8.619,18.243-18.902C563.571,544.002,555.61,535.709,545.328,535.709z"/>
		<path d="M545.328,453.775h-17.911H317.775c-10.282,0-18.576,7.961-18.576,18.244c0,10.289,8.293,18.25,18.576,18.25h209.642
			h17.911c10.282,0,18.243-7.961,18.243-18.25C563.571,461.736,555.61,453.775,545.328,453.775z"/>
	</g>
</g>
<g>
</g>
<g>
</g>
<g>
</g>
<g>
</g>
<g>
</g>
<g>
</g>
<g>
</g>
<g>
</g>
<g>
</g>
<g>
</g>
<g>
</g>
<g>
</g>
<g>
</g>
<g>
</g>
<g>
</g>
</svg>
