<?xml version="1.0" encoding="iso-8859-1"?>
<!-- Generator: Adobe Illustrator 16.0.0, SVG Export Plug-In . SVG Version: 6.00 Build 0)  -->
<!DOCTYPE svg PUBLIC "-//W3C//DTD SVG 1.1//EN" "http://www.w3.org/Graphics/SVG/1.1/DTD/svg11.dtd">
<svg version="1.1" id="Capa_1" xmlns="http://www.w3.org/2000/svg" xmlns:xlink="http://www.w3.org/1999/xlink" x="0px" y="0px"
	 width="611.997px" height="611.997px" viewBox="0 0 611.997 611.997" style="enable-background:new 0 0 611.997 611.997;"
	 xml:space="preserve">
<g>
	<g>
		<path d="M89.402,441.455h156.109c9.534,0,17.281-7.183,17.281-16.398V172.988c0-7.436-5.301-13.919-12.216-15.762
			c-8.586-2.352-14.847,0.318-19.067,7.119L75.4,416.413c-3.527,5.656-3.744,11.25-0.597,16.397
			C78.209,438.341,82.843,441.455,89.402,441.455z M229.126,232.859v175.8H118.594L229.126,232.859z"/>
		<path d="M609.866,473.297c-2.682-6.229-7.747-9.216-14.599-9.216H311.649v-22.626h247.574c6.852,0,11.085-3.114,14.002-8.645
			c3.044-5.783,3.56-11.504,0-17.033L308.967,8.82c-4.366-6.673-10.398-9.089-18.769-7.119c-6.826,1.589-11.618,8.326-11.618,15.763
			v407.593v39.024H16.705c-6.254,0-11.256,2.987-14.599,9.216c-3.209,5.975-2.701,11.631,1.195,16.97l83.12,114.149
			c3.26,4.448,7.748,6.546,13.404,6.546h412.919c5.065,0,9.534-2.098,13.404-6.546l82.529-114.149
			C612.555,484.928,613.146,479.271,609.866,473.297z M311.649,383.617v-0.571V74.665l217.778,333.994H311.649V383.617z
			 M504.405,578.166H107.872l-58.689-80.399h513.613L504.405,578.166z"/>
		<path d="M232.698,549.565c6.711-6.419,6.852-16.97,0-23.262c-6.254-6.801-16.83-6.674-23.237,0
			c-6.108,6.419-6.254,17.033,0,23.262C215.715,555.857,226.298,555.667,232.698,549.565z"/>
		<path d="M191.881,549.565c6.712-6.419,6.858-16.97,0-23.262c-6.254-6.801-16.83-6.674-23.236,0
			c-6.108,6.419-6.254,17.033,0,23.262C174.905,555.857,185.481,555.667,191.881,549.565z"/>
		<path d="M151.071,549.565c6.254-6.229,6.108-16.843,0-23.262c-6.406-6.674-16.836-6.674-23.243,0
			c-6.108,6.419-6.254,17.033,0,23.262C134.089,555.857,144.811,555.857,151.071,549.565z"/>
	</g>
</g>
<g>
</g>
<g>
</g>
<g>
</g>
<g>
</g>
<g>
</g>
<g>
</g>
<g>
</g>
<g>
</g>
<g>
</g>
<g>
</g>
<g>
</g>
<g>
</g>
<g>
</g>
<g>
</g>
<g>
</g>
</svg>
