<?xml version="1.0" encoding="iso-8859-1"?>
<!-- Generator: Adobe Illustrator 16.0.0, SVG Export Plug-In . SVG Version: 6.00 Build 0)  -->
<!DOCTYPE svg PUBLIC "-//W3C//DTD SVG 1.1//EN" "http://www.w3.org/Graphics/SVG/1.1/DTD/svg11.dtd">
<svg version="1.1" id="Capa_1" xmlns="http://www.w3.org/2000/svg" xmlns:xlink="http://www.w3.org/1999/xlink" x="0px" y="0px"
	 width="612px" height="612px" viewBox="0 0 612 612" style="enable-background:new 0 0 612 612;" xml:space="preserve">
<g>
	<path d="M607.346,262.822c0-1.346-17.073-53.061-50.468-155.71c-2.472-7.651-8.636-12.964-16.938-12.964H72.06
		c-6.971,0-12.284,3.33-16.272,9.634l-0.666,0.638L5.313,257.509c-1.658,3.684-2.656,6.305-2.656,8.005
		C0.999,269.765,0,274.794,0,280.391v197.294c0,10.98,3.903,20.686,11.625,28.549c7.552,7.722,17.264,11.618,28.556,11.618h530.971
		c11.293,0,21.005-3.896,28.89-11.618C608.097,498.37,612,488.665,612,477.685v-0.709V280.391
		C612,274.086,610.335,268.489,607.346,262.822z M82.354,130.986H528.98l34.868,109.238H441.314h-36.859
		c0,12.326-1.281,24.724-5.312,36.908c-13.24,39.955-48.81,64.749-92.979,64.749c-45.162,0-80.214-25.007-93.306-64.749
		c-3.839-11.688-5.979-23.944-5.979-36.908H170.02H47.485L82.354,130.986z M575.475,476.976c0,2.338-1.332,3.33-4.322,3.33
		l-530.971,0.708c-2.323,0-3.322-0.991-3.322-3.329V280.391c0-2.267,0.999-3.259,3.322-3.259h134.486
		c6.971,30.179,22.584,54.761,46.493,73.392c23.902,18.561,52.132,27.841,85.003,27.841c32.877,0,60.853-9.209,84.344-27.557
		c23.661-18.49,39.189-43.143,46.826-73.676h133.819c2.99,0,4.321,0.992,4.321,3.259L575.475,476.976L575.475,476.976z"/>
</g>
<g>
</g>
<g>
</g>
<g>
</g>
<g>
</g>
<g>
</g>
<g>
</g>
<g>
</g>
<g>
</g>
<g>
</g>
<g>
</g>
<g>
</g>
<g>
</g>
<g>
</g>
<g>
</g>
<g>
</g>
</svg>
