<?xml version="1.0" encoding="iso-8859-1"?>
<!-- Generator: Adobe Illustrator 16.0.0, SVG Export Plug-In . SVG Version: 6.00 Build 0)  -->
<!DOCTYPE svg PUBLIC "-//W3C//DTD SVG 1.1//EN" "http://www.w3.org/Graphics/SVG/1.1/DTD/svg11.dtd">
<svg version="1.1" id="Capa_1" xmlns="http://www.w3.org/2000/svg" xmlns:xlink="http://www.w3.org/1999/xlink" x="0px" y="0px"
	 width="612px" height="612px" viewBox="0 0 612 612" style="enable-background:new 0 0 612 612;" xml:space="preserve">
<g>
	<g>
		<path d="M592.549,287.068h-82.323c-10.766,0-19.45,8.299-19.45,19.117c0,10.745,8.685,19.118,19.45,19.118h82.323
			c10.767,0,19.451-8.373,19.451-19.118C612,295.367,603.315,287.068,592.549,287.068z"/>
		<path d="M476.541,235.644c3.142,7.632,9.025,11.485,18.058,11.485c3.127,0,5.558-0.371,6.95-1.408l76.759-31.937
			c9.433-3.927,14.797-15.042,10.767-25.045c-3.957-9.781-15.769-14.894-25.705-10.744l-76.062,31.937
			C477.252,214.155,472.384,225.566,476.541,235.644z"/>
		<path d="M578.308,397.845l-76.759-31.937c-9.951-4.149-20.903,1.037-25.008,10.744c-4.231,10.078,0.83,20.525,10.767,24.675
			l76.062,31.937c4.521,1.037,7.299,1.778,7.988,1.778c8.336,0,14.396-4.149,17.717-12.152
			C593.053,413.184,588.073,401.92,578.308,397.845z"/>
		<path d="M436.942,175.253c5.906,7.262,21.186,7.262,27.091,0l58.004-58.389c7.966-8.003,7.988-19.784,0-27.787
			c-6.943-6.965-18.754-7.262-26.742,0.741l-58.353,58.315C428.955,156.136,428.955,168.288,436.942,175.253z"/>
		<path d="M522.037,495.433l-58.004-58.982c-7.417-7.559-20.147-6.966-27.091,0c-7.987,7.929-7.987,19.413,0,27.416l58.353,58.315
			c3.816,3.854,8.336,5.779,13.546,5.928C524.127,528.628,535.234,505.213,522.037,495.433z"/>
		<path d="M377.197,135.314c2.757,1.111,5.217,1.334,6.95,1.334c9.033,0,14.509-3.927,17.717-11.782l31.255-76.396
			c4.127-10.077,0.089-21.414-9.722-25.341c-9.988-4.076-21.726,0.593-25.704,10.374l-31.263,77.136
			C362.341,120.717,367.098,131.165,377.197,135.314z"/>
		<path d="M401.864,486.763c-4.23-10.003-15.278-14.227-25.356-10.077c-9.365,3.853-14.264,14.968-10.077,25.045l31.959,76.766
			c3.171,7.633,9.032,11.411,17.709,11.411c3.476,0,5.906-0.296,7.299-1.333c9.722-4.224,14.945-15.116,10.767-25.046
			L401.864,486.763z"/>
		<path d="M305.996,0.159c-10.766,0-19.103,8.373-19.103,19.118v82.693c0,10.745,8.336,19.043,19.103,19.043
			c10.767,0,19.103-8.299,19.103-19.043V19.277C325.099,8.532,316.763,0.159,305.996,0.159z"/>
		<path d="M305.996,490.245c-10.766,0-19.103,8.67-19.103,19.488v82.99c0,10.744,8.336,19.117,19.103,19.117
			c10.767,0,19.103-8.373,19.103-19.117v-82.99C325.099,498.915,316.763,490.245,305.996,490.245z"/>
		<path d="M235.492,476.019c-10.018-4.001-21.711,0.963-25.705,10.744l-31.262,76.766c-4.112,10.077,0.697,21.859,10.767,25.046
			c1.393,1.037,3.823,1.333,6.95,1.333c9.033,0,14.946-3.778,18.058-11.411l31.262-76.766
			C249.674,491.653,245.621,480.02,235.492,476.019z"/>
		<path d="M214.3,33.503c-4.046-9.781-15.709-14.449-25.697-10.374c-9.818,3.927-14.279,15.264-10.078,25.341l31.958,76.396
			c3.261,7.78,8.685,11.782,18.058,11.782c1.741,0,4.208-0.223,6.95-1.334c9.766-4.075,14.768-15.042,10.767-24.675L214.3,33.503z"
			/>
		<path d="M148.656,175.253c3.846,3.779,8.336,5.558,13.545,5.558c4.52,0,9.24-1.556,13.545-5.558c7.166-6.743,7.536-19.71,0-27.12
			l-59.042-58.315c-7.536-7.484-20.147-8.003-27.098,0c-7.988,6.891-8.032,19.117,0,27.046L148.656,175.253z"/>
		<path d="M175.746,436.45c-7.988-6.966-20.34-7.559-27.787,0l-58.353,58.982c-7.439,7.558-7.729,19.562,0,26.749
			c8.255,7.706,19.11,8.003,27.098,0l59.042-58.982C182.697,456.234,182.697,444.379,175.746,436.45z"/>
		<path d="M33.692,213.785l76.758,31.937c3.824,1.037,5.906,1.408,6.943,1.408c8.684,0,15.094-4.075,18.413-12.152
			c3.979-9.707-0.622-21.044-10.418-25.045l-76.766-31.27c-10.092-4.075-21.474,0.519-25.008,10.077
			C19.851,198.965,24.341,209.857,33.692,213.785z"/>
		<path d="M135.111,376.652c-3.535-9.559-14.716-14.894-24.66-10.744l-76.758,31.937c-9.477,3.928-14.227,15.635-10.077,25.712
			c3.149,7.633,9.032,11.485,17.717,11.485c1.386,0,3.823-0.741,7.292-1.778l76.766-31.937
			C134.814,397.4,138.882,386.878,135.111,376.652z"/>
		<path d="M121.565,306.185c0-10.818-8.336-19.117-19.103-19.117H19.451C8.684,287.068,0,295.367,0,306.185
			c0,10.745,8.684,19.118,19.451,19.118h83.012C113.229,325.303,121.565,316.93,121.565,306.185z"/>
	</g>
</g>
<g>
</g>
<g>
</g>
<g>
</g>
<g>
</g>
<g>
</g>
<g>
</g>
<g>
</g>
<g>
</g>
<g>
</g>
<g>
</g>
<g>
</g>
<g>
</g>
<g>
</g>
<g>
</g>
<g>
</g>
</svg>
