<?xml version="1.0" encoding="iso-8859-1"?>
<!-- Generator: Adobe Illustrator 16.0.0, SVG Export Plug-In . SVG Version: 6.00 Build 0)  -->
<!DOCTYPE svg PUBLIC "-//W3C//DTD SVG 1.1//EN" "http://www.w3.org/Graphics/SVG/1.1/DTD/svg11.dtd">
<svg version="1.1" id="Capa_1" xmlns="http://www.w3.org/2000/svg" xmlns:xlink="http://www.w3.org/1999/xlink" x="0px" y="0px"
	 width="611.998px" height="611.998px" viewBox="0 0 611.998 611.998" style="enable-background:new 0 0 611.998 611.998;"
	 xml:space="preserve">
<g>
	<g>
		<path d="M463.411,424.854c-15.7,0-28.942,5.545-40.024,16.934c-11.089,11.391-16.626,24.943-16.626,40.643
			c0,15.707,5.465,29.33,16.626,40.648c11.01,11.16,24.324,16.627,40.024,16.627c15.706,0,29.251-5.545,40.648-16.936
			c11.391-11.391,16.935-24.633,16.935-40.34c0-15.699-5.853-28.943-17.243-40.332C492.36,430.699,479.117,424.854,463.411,424.854z
			 M463.411,505.525c-12.619,0-22.473-10.471-22.473-23.096c0-12.619,10.156-23.398,22.473-23.398
			c12.625,0,23.405,10.779,23.405,23.398C486.816,495.055,476.036,505.525,463.411,505.525z"/>
		<path d="M298.374,424.854c-15.707,0-29.251,5.846-40.648,17.244c-11.391,11.389-16.935,24.633-16.935,40.332
			c0,15.707,5.544,28.949,16.935,40.34c11.397,11.391,24.942,16.936,40.648,16.936c15.7,0,29.021-5.467,40.024-16.627
			c11.168-11.318,16.633-24.941,16.633-40.648c0-15.699-5.544-29.252-16.633-40.643
			C327.316,430.396,314.073,424.854,298.374,424.854z M298.374,505.525c-13.243,0-23.405-10.471-23.405-23.096
			c0-12.619,10.162-23.398,23.405-23.398c12.317,0,22.479,10.779,22.479,23.398C320.853,495.055,310.999,505.525,298.374,505.525z"
			/>
		<path d="M599.821,74.447c-8.914-2.529-18.373,2.49-20.941,11.082l-17.553,58.812H143.183l-28.325-61.886
			c-3.101-6.773-8.316-10.162-15.706-10.162h-82.21C7.39,72.293,0,79.992,0,89.536c0,9.545,7.39,16.935,16.941,16.935h71.43
			l134.256,293.131c3.212,7.016,8.927,10.162,15.7,10.162h266.041c8.31,0,14.11-4.23,16.626-12.625l90.218-301.447
			C613.951,86.541,609.386,77.154,599.821,74.447z M491.743,375.895H249.106L158.889,178.21h392.283L491.743,375.895z"/>
	</g>
</g>
<g>
</g>
<g>
</g>
<g>
</g>
<g>
</g>
<g>
</g>
<g>
</g>
<g>
</g>
<g>
</g>
<g>
</g>
<g>
</g>
<g>
</g>
<g>
</g>
<g>
</g>
<g>
</g>
<g>
</g>
</svg>
