<?xml version="1.0" encoding="iso-8859-1"?>
<!-- Generator: Adobe Illustrator 16.0.0, SVG Export Plug-In . SVG Version: 6.00 Build 0)  -->
<!DOCTYPE svg PUBLIC "-//W3C//DTD SVG 1.1//EN" "http://www.w3.org/Graphics/SVG/1.1/DTD/svg11.dtd">
<svg version="1.1" id="Capa_1" xmlns="http://www.w3.org/2000/svg" xmlns:xlink="http://www.w3.org/1999/xlink" x="0px" y="0px"
	 width="549.99px" height="549.99px" viewBox="0 0 549.99 549.99" style="enable-background:new 0 0 549.99 549.99;"
	 xml:space="preserve">
<g>
	<g>
		<path d="M406.228,453.197c-2.769-13.637,0.736-25.359,10.664-35.287c9.92-9.928,22.059-13.996,36.016-11.393
			c7.732,1.441,14.343,5.143,20.585,11.393c5.521,5.514,8.899,11.746,10.296,19.479c2.65,14.695-0.848,27.092-10.296,36.023
			c-10.774,10.195-23.141,13.551-36.385,10.658c-6.972-1.521-13.605-5.145-20.216-10.658
			C411.379,467.9,407.866,461.25,406.228,453.197z"/>
		<path d="M366.533,461.281c3.051,15.785,10.288,29.406,21.689,40.801c11.394,11.393,24.983,18.42,40.8,21.689
			c26.818,5.551,54.303-2.666,73.146-21.689c18.647-18.836,26.983-45.904,21.682-72.41c-3.151-15.76-10.029-30.041-21.682-41.168
			c-12.609-12.035-26.418-19.359-40.799-22.049c-26.795-5.027-54.585,3.129-73.146,22.049
			C368.188,408.916,361.131,433.326,366.533,461.281z"/>
		<path d="M239.352,487.01c2.18,11.34,13.236,18.381,23.893,15.809c3.309-0.369,6.619-2.203,10.665-5.145
			c4.775-4.783,6.61-11.393,5.144-19.117c-10.664-56.232,6.148-112.564,46.681-152.541c40.337-39.787,96.961-56.953,152.91-45.943
			c11.323,2.227,22.105-5.051,24.254-15.809c2.267-11.315-5.073-21.988-15.801-24.254c-34.487-7.292-68.684-5.348-102.552,4.775
			c-33.766,10.092-63.226,27.571-88.217,52.562c-24.63,24.629-42.274,54.035-52.193,87.479
			C234.208,418.279,232.71,452.396,239.352,487.01z"/>
		<path d="M121,511.271c2.141,11.34,12.86,18.373,24.262,15.809c3.301-0.744,6.61-2.572,9.551-5.512
			c5.881-4.785,7.904-10.986,6.25-18.75c-10.107-47.379-7.888-94.514,6.25-141.148c14.169-46.734,38.502-87.205,72.777-121.66
			c34.095-34.275,74.251-58.075,120.932-72.048c46.681-13.966,94.177-16.584,141.877-6.979c10.751,2.164,22.059-4.415,23.894-15.809
			c1.843-11.394-5.082-21.604-16.538-23.894c-54.711-10.938-108.433-8.084-160.994,7.724
			c-52.562,15.801-98.506,43.003-137.839,82.336c-39.333,39.325-66.849,85.284-82.705,138.567
			C112.962,402.855,110.641,456.451,121,511.271z"/>
		<path d="M8.889,533.691c2.219,11.33,12.829,18.215,23.524,15.809c4.007-0.902,7.716-2.572,10.288-5.145
			c4.775-4.783,6.987-11.395,6.25-19.117c-13.597-66.529-10.609-131.943,8.822-196.65c19.525-65.038,53.299-121.293,101.085-169.08
			c48.147-48.147,104.739-82.015,169.447-101.446c65.046-19.533,130.404-22.387,197.019-9.19
			c11.323,2.242,22.105-5.05,24.254-15.809c2.267-11.315-5.058-21.69-15.801-23.885C459.973-5.909,387.486-2.215,316.175,19.098
			c-71.303,21.321-133.612,58.263-185.985,111.004c-52.75,53.119-89.856,115.373-111.373,186.731
			C-2.669,388.09-5.438,460.475,8.889,533.691z"/>
	</g>
</g>
<g>
</g>
<g>
</g>
<g>
</g>
<g>
</g>
<g>
</g>
<g>
</g>
<g>
</g>
<g>
</g>
<g>
</g>
<g>
</g>
<g>
</g>
<g>
</g>
<g>
</g>
<g>
</g>
<g>
</g>
</svg>
