<?xml version="1.0" encoding="iso-8859-1"?>
<!-- Generator: Adobe Illustrator 16.0.0, SVG Export Plug-In . SVG Version: 6.00 Build 0)  -->
<!DOCTYPE svg PUBLIC "-//W3C//DTD SVG 1.1//EN" "http://www.w3.org/Graphics/SVG/1.1/DTD/svg11.dtd">
<svg version="1.1" id="Capa_1" xmlns="http://www.w3.org/2000/svg" xmlns:xlink="http://www.w3.org/1999/xlink" x="0px" y="0px"
	 width="611.998px" height="611.999px" viewBox="0 0 611.998 611.999" style="enable-background:new 0 0 611.998 611.999;"
	 xml:space="preserve">
<g>
	<path d="M605.878,13.509c-3.916-3.917-8.921-6.153-15.325-5.704L192.684,35.611c-9.271,0.654-14.976,4.997-17.47,12.838
		c-1.422,2.852-2.396,6.427-2.137,10.336l23.882,365.072c-4.989-3.209-7.484-4.996-7.841-4.996c0-0.357-0.357-0.708-0.708-0.708
		c-24.604-12.48-51.719-17.295-81.647-13.195c-32.469,4.457-58.625,17.66-79.145,39.215C6.07,466.823-3.026,492.302,0.883,521.181
		c3.225,23.896,15.265,43.899,36.72,59.567c21.684,15.744,47.057,23.502,76.293,23.502c4.989,0,11.773-0.305,20.322-1.445
		c28.886-3.803,53.559-14.831,73.44-32.78c20.049-18.102,31.016-38.857,33.153-62.747v-0.715v-0.708v-3.924
		c0.715-3.21,0.715-6.062,0-9.271v-4.632L220.49,182.142l344.036-18.185l-11.051,229.95c-8.199-6.776-15.691-11.408-16.041-11.766
		l-0.715-0.707c-24.604-11.767-51.727-16.254-81.997-12.124c-32.477,4.427-58.274,17.653-78.795,39.215
		c-21.547,22.65-30.925,47.757-27.092,75.936c3.294,24.231,15.265,44.296,36.721,59.933c21.684,15.744,47.057,23.502,76.65,23.502
		c9.271,0,16.04-0.38,20.322-1.445c28.521-3.879,52.761-14.983,72.726-33.146c19.965-18.186,31.373-38.857,33.868-62.747v-1.422
		v-2.853c0.715-1.787,0.715-3.925,0-5.704h0.715l18.543-387.175l3.56-44.562C612.427,22.795,609.803,17.433,605.878,13.509z
		 M201.598,501.931v0.715c0,14.656-8.557,27.807-22.459,39.572c-13.903,11.759-30.324,18.375-49.917,21.037
		c-6.792,0.913-11.766,1.445-15.325,1.445c-19.608,0-36.447-4.563-50.274-13.918c-13.987-9.515-21.471-21.434-23.524-35.663
		c-2.221-15.371,2.654-30.127,16.041-43.848c15.143-15.516,33.891-24.087,56.328-27.099c6.8-0.905,11.766-1.423,15.333-1.423
		c13.903,0,27.807,3.21,41.71,9.629c4.282,2.853,9.089,6.944,17.828,15.684c8.739,8.738,14.261,21.029,14.261,32.445V501.931
		L201.598,501.931z M549.908,466.283c0,14.656-8.557,27.807-22.46,39.572c-13.903,11.767-30.293,18.984-49.908,21.745
		c-3.202,0.449-8.557,0.715-15.333,0.715c-19.607,0-36.446-4.51-50.267-13.546c-13.986-9.149-21.523-21.067-23.532-35.298
		c-2.266-16.078,3.02-30.491,16.041-43.854c14.793-15.166,33.184-24.057,56.335-27.092c6.8-0.89,11.409-1.43,14.611-1.43
		c14.26,0,28.681,2.883,42.424,9.629c5.88,2.883,14.124,9.005,24.604,24.954c5.21,7.94,7.484,15.684,7.484,23.175V466.283z
		 M568.801,70.551l-3.56,53.833l-346.173,18.542l-4.282-69.524L570.23,48.449L568.801,70.551z"/>
</g>
<g>
</g>
<g>
</g>
<g>
</g>
<g>
</g>
<g>
</g>
<g>
</g>
<g>
</g>
<g>
</g>
<g>
</g>
<g>
</g>
<g>
</g>
<g>
</g>
<g>
</g>
<g>
</g>
<g>
</g>
</svg>
