<?xml version="1.0" encoding="iso-8859-1"?>
<!-- Generator: Adobe Illustrator 16.0.0, SVG Export Plug-In . SVG Version: 6.00 Build 0)  -->
<!DOCTYPE svg PUBLIC "-//W3C//DTD SVG 1.1//EN" "http://www.w3.org/Graphics/SVG/1.1/DTD/svg11.dtd">
<svg version="1.1" id="Capa_1" xmlns="http://www.w3.org/2000/svg" xmlns:xlink="http://www.w3.org/1999/xlink" x="0px" y="0px"
	 width="616.469px" height="616.469px" viewBox="0 0 616.469 616.469" style="enable-background:new 0 0 616.469 616.469;"
	 xml:space="preserve">
<g>
	<g>
		<path d="M601.21,13.397C592.559,4.556,581.867,0,569.216,0H47.245C34.601,0,23.902,4.556,15.251,13.397
			C6.79,22.041,2.234,32.74,2.234,45.019v448.674c0,12.278,4.365,23.16,13.017,32.002c8.469,8.643,19.35,13.017,31.994,13.017
			H343.76l139.516,77.758v-77.758h85.94c12.651,0,23.533-4.374,31.994-13.017c8.651-8.842,13.024-19.724,13.024-32.002v-296.88
			V45.019C614.234,32.74,609.679,22.041,601.21,13.397z M572.938,151.794v45.018v296.88c0,2.611-1.119,4.096-3.723,4.096h-85.94
			h-41.296v40.923v7.817l-13.763-7.817l-64.733-36.455l-9.302-4.468H111.24H47.245c-2.604,0-3.714-1.484-3.714-4.096V45.019
			c0-2.604,1.111-3.723,3.714-3.723h521.971c2.604,0,3.723,1.119,3.723,3.723V151.794z"/>
		<rect x="401.43" y="250.013" width="57.289" height="57.289"/>
		<rect x="279.772" y="250.013" width="56.924" height="57.289"/>
		<rect x="157.743" y="250.013" width="57.296" height="57.289"/>
	</g>
</g>
<g>
</g>
<g>
</g>
<g>
</g>
<g>
</g>
<g>
</g>
<g>
</g>
<g>
</g>
<g>
</g>
<g>
</g>
<g>
</g>
<g>
</g>
<g>
</g>
<g>
</g>
<g>
</g>
<g>
</g>
</svg>
