<?xml version="1.0" encoding="iso-8859-1"?>
<!-- Generator: Adobe Illustrator 16.0.0, SVG Export Plug-In . SVG Version: 6.00 Build 0)  -->
<!DOCTYPE svg PUBLIC "-//W3C//DTD SVG 1.1//EN" "http://www.w3.org/Graphics/SVG/1.1/DTD/svg11.dtd">
<svg version="1.1" id="Capa_1" xmlns="http://www.w3.org/2000/svg" xmlns:xlink="http://www.w3.org/1999/xlink" x="0px" y="0px"
	 width="616.469px" height="616.469px" viewBox="0 0 616.469 616.469" style="enable-background:new 0 0 616.469 616.469;"
	 xml:space="preserve">
<g>
	<g>
		<path d="M601.218,13.397C592.566,4.556,581.867,0,569.224,0H47.252c-12.651,0-23.35,4.556-31.994,13.397
			C6.79,22.041,2.234,32.74,2.234,45.019v448.674c0,12.278,4.373,23.16,13.024,32.002c8.461,8.643,19.342,13.017,31.994,13.017
			h296.515l139.516,77.758v-77.758h85.941c12.643,0,23.524-4.374,31.993-13.017c8.651-8.842,13.017-19.724,13.017-32.002v-296.88
			V45.019C614.234,32.74,609.679,22.041,601.218,13.397z M572.938,151.794v45.018v296.88c0,2.611-1.111,4.096-3.715,4.096h-85.94
			h-41.296v40.923v7.817l-13.771-7.817l-64.733-36.455l-9.302-4.468H111.24H47.252c-2.603,0-3.722-1.484-3.722-4.096V45.019
			c0-2.604,1.119-3.723,3.722-3.723h521.971c2.604,0,3.715,1.119,3.715,3.723V151.794z"/>
		<path d="M468.767,314.746h-148.81c-11.532,0-20.461,8.93-20.461,20.462s8.929,20.834,20.461,20.834h148.81
			c11.54,0,20.469-9.302,20.469-20.834S480.307,314.746,468.767,314.746z"/>
		<path d="M468.767,223.226H213.555c-11.532,0-20.834,9.302-20.834,20.834s9.302,20.461,20.834,20.461h255.212
			c11.54,0,20.469-8.929,20.469-20.461C489.236,232.528,480.307,223.226,468.767,223.226z"/>
		<path d="M468.767,130.959H147.702c-11.532,0-20.461,9.302-20.461,20.834c0,11.532,8.929,20.461,20.461,20.461h321.064
			c11.54,0,20.469-8.929,20.469-20.461C489.236,140.261,480.307,130.959,468.767,130.959z"/>
	</g>
</g>
<g>
</g>
<g>
</g>
<g>
</g>
<g>
</g>
<g>
</g>
<g>
</g>
<g>
</g>
<g>
</g>
<g>
</g>
<g>
</g>
<g>
</g>
<g>
</g>
<g>
</g>
<g>
</g>
<g>
</g>
</svg>
