<?xml version="1.0" encoding="iso-8859-1"?>
<!-- Generator: Adobe Illustrator 16.0.0, SVG Export Plug-In . SVG Version: 6.00 Build 0)  -->
<!DOCTYPE svg PUBLIC "-//W3C//DTD SVG 1.1//EN" "http://www.w3.org/Graphics/SVG/1.1/DTD/svg11.dtd">
<svg version="1.1" id="Capa_1" xmlns="http://www.w3.org/2000/svg" xmlns:xlink="http://www.w3.org/1999/xlink" x="0px" y="0px"
	 width="792px" height="792px" viewBox="0 0 792 792" style="enable-background:new 0 0 792 792;" xml:space="preserve">
<g>
	<g>
		<path d="M658.061,277.569L381.659,0.777L380.881,0h-41.864H180.069c-13.183,0-24.422,4.648-33.337,13.572
			c-8.916,8.916-13.572,20.155-13.572,32.949v698.959c0,26.366,20.552,46.521,46.909,46.521h431.86
			c12.795,0,23.943-4.747,32.957-13.563c9.205-9.015,13.953-19.774,13.953-32.957V320.6v-43.031H658.061z M381.659,61.639
			l215.929,215.93h-212.05c-2.721,0-3.879-1.546-3.879-4.648V61.639z M615.809,745.479c0,2.721-1.166,3.879-3.879,3.879h-431.86
			c-2.712,0-3.879-1.158-3.879-3.879V46.521c0-2.712,1.167-3.879,3.879-3.879h158.948v230.279c0,26.357,20.155,47.679,46.521,47.679
			h230.271V745.479z"/>
		<path d="M207.982,412.863c0,12.017,9.304,22.099,21.321,22.099h333.395c12.016,0,21.32-10.082,21.32-22.099
			c0-11.239-9.305-21.709-21.32-21.709H229.303C217.286,391.154,207.982,401.624,207.982,412.863z"/>
		<path d="M562.697,494.276H229.303c-12.017,0-21.321,9.692-21.321,21.71c0,12.017,9.304,21.32,21.321,21.32h333.395
			c12.016,0,21.32-9.304,21.32-21.32C584.018,503.969,574.713,494.276,562.697,494.276z"/>
		<path d="M562.697,597.011H229.303c-12.017,0-21.321,9.296-21.321,21.32c0,12.017,9.304,21.321,21.321,21.321h333.395
			c12.016,0,21.32-9.305,21.32-21.321C584.018,606.307,574.713,597.011,562.697,597.011z"/>
	</g>
</g>
<g>
</g>
<g>
</g>
<g>
</g>
<g>
</g>
<g>
</g>
<g>
</g>
<g>
</g>
<g>
</g>
<g>
</g>
<g>
</g>
<g>
</g>
<g>
</g>
<g>
</g>
<g>
</g>
<g>
</g>
</svg>
