<?xml version="1.0" encoding="iso-8859-1"?>
<!-- Generator: Adobe Illustrator 16.0.0, SVG Export Plug-In . SVG Version: 6.00 Build 0)  -->
<!DOCTYPE svg PUBLIC "-//W3C//DTD SVG 1.1//EN" "http://www.w3.org/Graphics/SVG/1.1/DTD/svg11.dtd">
<svg version="1.1" id="Capa_1" xmlns="http://www.w3.org/2000/svg" xmlns:xlink="http://www.w3.org/1999/xlink" x="0px" y="0px"
	 width="792px" height="792px" viewBox="0 0 792 792" style="enable-background:new 0 0 792 792;" xml:space="preserve">
<g>
	<g>
		<path d="M510.284,0h-42.692H309.275c-12.807,0-24.157,4.553-33.379,13.577c-9.015,8.833-13.577,19.794-13.577,32.99v75.665h43.073
			V46.566c0-2.724,1.167-3.883,3.883-3.883h158.317v174.229c0,12.807,4.463,24.256,13.585,33.379
			c9.123,9.114,20.564,13.577,33.371,13.577h135.816v331.395c0,2.715-1.159,3.883-3.875,3.883h-86.924v42.684h86.924
			c26.384,0,46.559-20.184,46.559-46.566V263.868v-42.295v-0.778L510.284,0z M514.548,220.795c-1.549,0-4.264-2.326-4.264-3.883
			V67.519l126.503,153.276H514.548z"/>
		<path d="M346.909,150.171v-0.778h-43.073H145.519c-12.807,0-24.065,4.661-32.989,13.974c-8.924,9.313-13.577,20.563-13.577,33.759
			v548.307c0,13.196,4.653,24.065,13.577,32.99c8.924,8.924,20.183,13.576,32.989,13.576h337.207
			c26.392,0,46.955-20.175,46.955-46.566V413.269v-42.294l-0.77-0.778L346.909,150.171z M346.909,217.69l126.123,152.506h-122.24
			c-2.715,0-3.883-1.167-3.883-3.883V217.69z M486.607,745.434c0,2.724-1.158,3.883-3.882,3.883H145.519
			c-2.715,0-3.882-1.159-3.882-3.883V197.126c0-2.715,1.167-4.271,3.882-4.271h158.317v173.458c0,13.196,4.562,24.545,13.585,33.37
			c9.222,9.023,20.563,13.585,33.371,13.585h135.816V745.434L486.607,745.434z"/>
		<path d="M169.576,489.323c0,12.028,9.313,21.342,21.342,21.342h246.408c12.028,0,21.342-9.313,21.342-21.342
			s-9.313-21.342-21.342-21.342H190.918C178.889,467.981,169.576,477.295,169.576,489.323z"/>
		<path d="M437.326,558.398H190.918c-12.029,0-21.342,9.702-21.342,21.731c0,11.25,9.313,21.342,21.342,21.342h246.408
			c12.028,0,21.342-10.092,21.342-21.342C458.668,568.101,449.354,558.398,437.326,558.398z"/>
		<path d="M437.326,648.427H190.918c-12.029,0-21.342,9.313-21.342,21.342s9.313,21.342,21.342,21.342h246.408
			c12.028,0,21.342-9.313,21.342-21.342S449.354,648.427,437.326,648.427z"/>
	</g>
</g>
<g>
</g>
<g>
</g>
<g>
</g>
<g>
</g>
<g>
</g>
<g>
</g>
<g>
</g>
<g>
</g>
<g>
</g>
<g>
</g>
<g>
</g>
<g>
</g>
<g>
</g>
<g>
</g>
<g>
</g>
</svg>
