<?xml version="1.0" encoding="iso-8859-1"?>
<!-- Generator: Adobe Illustrator 16.0.0, SVG Export Plug-In . SVG Version: 6.00 Build 0)  -->
<!DOCTYPE svg PUBLIC "-//W3C//DTD SVG 1.1//EN" "http://www.w3.org/Graphics/SVG/1.1/DTD/svg11.dtd">
<svg version="1.1" id="Capa_1" xmlns="http://www.w3.org/2000/svg" xmlns:xlink="http://www.w3.org/1999/xlink" x="0px" y="0px"
	 width="792px" height="792px" viewBox="0 0 792 792" style="enable-background:new 0 0 792 792;" xml:space="preserve">
<g>
	<g>
		<path d="M658.061,277.569L381.659,0.777L380.881,0h-41.873H180.069c-13.183,0-24.422,4.648-33.337,13.572
			c-8.924,8.916-13.572,20.155-13.572,32.949v698.959c0,26.366,20.543,46.521,46.909,46.521h431.86
			c26.357,0,46.91-20.154,46.91-46.521V320.6v-43.031H658.061z M381.659,61.639l215.929,215.93h-212.05
			c-2.713,0-3.879-1.555-3.879-4.648V61.639z M615.809,745.479c0,2.713-1.166,3.879-3.879,3.879h-431.86
			c-2.712,0-3.879-1.166-3.879-3.879V46.521c0-2.712,1.167-3.879,3.879-3.879h158.939v230.279c0,26.366,20.163,47.687,46.521,47.687
			h230.271v424.872H615.809z"/>
		<path d="M283.961,412.863c0,12.017,9.693,22.099,21.709,22.099h257.024c12.018,0,21.322-10.082,21.322-22.099
			c0-11.239-9.305-21.709-21.322-21.709H305.671C293.654,391.154,283.961,401.624,283.961,412.863z"/>
		<path d="M562.697,494.276H305.671c-12.017,0-21.709,9.692-21.709,21.71c0,12.017,9.693,21.32,21.709,21.32h257.024
			c12.018,0,21.322-9.304,21.322-21.32C584.018,503.969,574.713,494.276,562.697,494.276z"/>
		<path d="M562.697,597.011H305.671c-12.017,0-21.709,9.304-21.709,21.32s9.693,21.321,21.709,21.321h257.024
			c12.018,0,21.322-9.305,21.322-21.321S574.713,597.011,562.697,597.011z"/>
		<rect x="207.982" y="391.154" width="42.642" height="43.808"/>
		<rect x="207.982" y="494.276" width="42.642" height="43.03"/>
		<rect x="207.982" y="597.002" width="42.642" height="42.642"/>
	</g>
</g>
<g>
</g>
<g>
</g>
<g>
</g>
<g>
</g>
<g>
</g>
<g>
</g>
<g>
</g>
<g>
</g>
<g>
</g>
<g>
</g>
<g>
</g>
<g>
</g>
<g>
</g>
<g>
</g>
<g>
</g>
</svg>
