<?xml version="1.0" encoding="iso-8859-1"?>
<!-- Generator: Adobe Illustrator 16.0.0, SVG Export Plug-In . SVG Version: 6.00 Build 0)  -->
<!DOCTYPE svg PUBLIC "-//W3C//DTD SVG 1.1//EN" "http://www.w3.org/Graphics/SVG/1.1/DTD/svg11.dtd">
<svg version="1.1" id="Capa_1" xmlns="http://www.w3.org/2000/svg" xmlns:xlink="http://www.w3.org/1999/xlink" x="0px" y="0px"
	 width="612px" height="612px" viewBox="0 0 612 612" style="enable-background:new 0 0 612 612;" xml:space="preserve">
<g>
	<g>
		<path d="M586.602,271.486h-92.037v-77.693c0-36.16-17.633-66.04-53.193-89.646c-35.56-23.613-80.383-35.267-135.068-35.267
			c-54.985,0-100.452,11.59-136.267,35.267c-35.604,23.537-53.493,53.486-53.493,89.646v18.826c0,9.263,11.954,16.435,25.405,16.435
			c14.344,0,25.998-7.172,25.998-16.435v-18.826c0-26.896,12.916-48.903,38.55-66.04c25.768-17.231,58.868-25.997,99.808-25.997
			c40.042,0,72.797,8.835,98.31,25.997c25.584,17.2,38.551,39.143,38.551,66.04v77.693H25.405C11.36,271.486,0,278.658,0,287.921
			v238.752c0,9.309,11.36,16.447,25.405,16.447h561.197c13.445,0,25.398-7.139,25.398-16.447V287.921
			C612,278.658,600.047,271.486,586.602,271.486z M560.604,509.972H51.402V304.356h509.202V509.972z"/>
		<path d="M280.305,407.753v68.73c0,9.262,11.654,17.039,25.698,17.039c14.344,0,25.698-7.777,25.698-17.039v-68.73
			c21.516-6.273,37.052-19.125,37.052-33.469c0-9.863-6.637-18.412-19.418-25.699c-12.916-7.355-27.196-11.061-43.032-11.061
			c-16.734,0-31.614,3.705-44.53,11.061c-12.782,7.287-19.418,15.836-19.418,25.699C242.354,388.327,258.79,401.479,280.305,407.753
			z"/>
	</g>
</g>
<g>
</g>
<g>
</g>
<g>
</g>
<g>
</g>
<g>
</g>
<g>
</g>
<g>
</g>
<g>
</g>
<g>
</g>
<g>
</g>
<g>
</g>
<g>
</g>
<g>
</g>
<g>
</g>
<g>
</g>
</svg>
