<?xml version="1.0" encoding="iso-8859-1"?>
<!-- Generator: Adobe Illustrator 16.0.0, SVG Export Plug-In . SVG Version: 6.00 Build 0)  -->
<!DOCTYPE svg PUBLIC "-//W3C//DTD SVG 1.1//EN" "http://www.w3.org/Graphics/SVG/1.1/DTD/svg11.dtd">
<svg version="1.1" id="Capa_1" xmlns="http://www.w3.org/2000/svg" xmlns:xlink="http://www.w3.org/1999/xlink" x="0px" y="0px"
	 width="612px" height="612px" viewBox="0 0 612 612" style="enable-background:new 0 0 612 612;" xml:space="preserve">
<g>
	<path d="M590.163,199.515c-14.485-33.751-33.872-62.741-58.331-87.047c-24.307-24.153-53.598-43.54-87.342-58.025
		c-33.853-14.53-69.396-21.837-106.484-21.837c-47.561,0-91.566,11.301-132.508,34.102c-40.713,22.667-73.583,53.839-98.413,93.027
		c-24.83,39.181-38.888,82.555-41.581,129.515H0l82.555,80.762l81.662-80.762H98.413c2.093-30.809,9.929-59.793,23.33-87.341
		c13.522-27.791,30.809-51.453,52.046-71.49c21.237-20.043,46.048-35.646,74.483-47.26c28.697-11.723,58.625-17.651,89.734-17.651
		c43.373,0,83.716,10.835,120.543,32.309c37.05,21.601,66.403,50.846,87.94,87.641c21.537,36.788,32.309,76.869,32.309,120.243
		s-10.708,83.793-32.309,120.85c-21.473,36.826-50.891,66.04-87.94,87.641c-36.833,21.473-77.176,32.302-120.543,32.302
		c-37.389,0-73.283-8.672-107.085-25.723l-14.058,30.509c39.188,18.845,79.568,28.116,121.143,28.116
		c37.088,0,72.632-7.3,106.484-21.83c33.744-14.485,62.965-33.955,87.341-58.332c24.377-24.376,43.84-53.297,58.332-87.041
		C604.693,378.332,612,342.795,612,305.7C612,268.612,604.693,233.368,590.163,199.515z"/>
</g>
<g>
</g>
<g>
</g>
<g>
</g>
<g>
</g>
<g>
</g>
<g>
</g>
<g>
</g>
<g>
</g>
<g>
</g>
<g>
</g>
<g>
</g>
<g>
</g>
<g>
</g>
<g>
</g>
<g>
</g>
</svg>
