<?xml version="1.0" encoding="iso-8859-1"?>
<!-- Generator: Adobe Illustrator 16.0.0, SVG Export Plug-In . SVG Version: 6.00 Build 0)  -->
<!DOCTYPE svg PUBLIC "-//W3C//DTD SVG 1.1//EN" "http://www.w3.org/Graphics/SVG/1.1/DTD/svg11.dtd">
<svg version="1.1" id="Capa_1" xmlns="http://www.w3.org/2000/svg" xmlns:xlink="http://www.w3.org/1999/xlink" x="0px" y="0px"
	 width="612px" height="612px" viewBox="0 0 612 612" style="enable-background:new 0 0 612 612;" xml:space="preserve">
<g>
	<g>
		<path d="M462.304,355.815c2.758-7.182,1.213-12.953-3.604-17.762l-114.522-114.53c-6.316-6.285-17.154-6.285-23.451,0
			l-113.92,114.53c-3.296,3.334-4.81,7.246-4.81,11.734c0,1.475,0.301,3.592,1.199,6.027c3.309,6.926,8.42,10.518,15.333,10.518
			h56.809v11.094c0,19.238-1.949,38.795-5.406,58.354c-3.456,19.496-7.65,36.297-12.325,50.469
			c-4.643,14.107-9.574,27.061-14.73,38.795c-10.472,23.727-16.833,33.924-18.039,35.143c-3.604,6.926-3.084,16.031,1.809,21.033
			c5.925,6.092,12.562,6.797,20.135,3.014l0.603-0.258c5.111-3.334,11.299-6.797,27.356-19.879
			c16.41-13.338,30.716-27.252,49.897-52.006c18.994-24.496,34.243-49.891,47.793-87.146c6.887-18.982,12.325-38.477,15.929-58.611
			h58.617C454.487,366.333,459.649,362.741,462.304,355.815z M374.233,333.243c-8.715,0-15.429,6.027-16.531,14.172
			c-8.215,60.344-32.166,113.568-71.54,159.289c14.73-43.605,22.246-86.891,22.246-129.277c0-12.891-0.302-22.83-1.206-29.434
			c-0.302-8.723-7.214-14.75-15.929-14.75h-32.769l73.944-74.514l74.546,74.514H374.233z"/>
		<path d="M593.358,226.538c-12.318-22.508-28.851-40.592-49.896-54.122c-5.11-37.514-20.514-69.962-45.984-97.087
			c-30.14-32.063-70.943-49.89-113.324-49.89c-33.967,0-64.556,10.324-92.284,30.973c-27.581,20.521-47.19,47.197-58.611,80.286
			c-3.309-0.898-8.119-1.219-14.73-1.219c-23.444,0-44.471,7.247-63.125,21.931c-18.314,14.429-30.96,33.089-37.873,56.239h-6.611
			c-30.357,0-56.514,11.415-78.452,34.564C10.818,271.041,0,298.68,0,330.87c0,28.537,8.939,53.609,26.452,75.412
			c17.955,22.381,40.265,35.912,67.634,40.271c6.297,1.027,11.421,1.219,15.031,1.219h109.412v-33.346H109.117
			c-2.103,0-5.361-0.576-9.317-1.219c-18.898-2.949-34.66-11.926-47.492-27.637c-12.716-15.584-18.943-33.988-18.943-54.701
			c0-23.148,7.509-43.028,22.547-59.252c15.326-16.544,33.666-24.624,55.007-24.624c12.928,0,24.951,3.014,36.372,9.298
			c-0.603-3.014-0.904-6.028-0.904-9.298c0-21.354,6.913-39.694,21.04-55.021c14.133-15.326,30.966-23.149,51.102-23.149
			c13.826,0,26.452,3.912,38.174,11.735c3.912-34.563,17.962-63.484,42.086-86.57c24.271-23.214,52.603-34.885,85.364-34.885
			c34.564,0,64.325,13.274,89.276,39.374c24.945,26.163,37.572,57.713,38.175,95.035c20.136,8.401,36.07,22.188,48.39,41.425
			c12.324,19.238,18.641,40.913,18.641,64.96c0,29.177-8.419,54.378-25.554,75.732c-17.135,21.355-38.476,33.668-64.325,37.578
			c-2.404,0.898-6.912,1.219-13.523,1.219h-54.11v33.346h54.11c7.516,0,14.127-0.576,19.84-2.115
			c33.365-4.811,61.581-21.355,84.159-49.57C601.137,368.706,612,336.577,612,299.898C612,273.414,605.684,249.11,593.358,226.538z"
			/>
	</g>
</g>
<g>
</g>
<g>
</g>
<g>
</g>
<g>
</g>
<g>
</g>
<g>
</g>
<g>
</g>
<g>
</g>
<g>
</g>
<g>
</g>
<g>
</g>
<g>
</g>
<g>
</g>
<g>
</g>
<g>
</g>
</svg>
